<?xml version="1.0" encoding="utf-8"?>
<svg width="100%" height="100%" viewBox="-105.0 -105.0 210.0 210.0" preserveAspectRatio="xMidYMid meet" version="1.1" baseProfile="full" xmlns="http://www.w3.org/2000/svg">
<g style="stroke:#fff; stroke-width: 0.7294901687515776; stroke-linejoin: round;">
<path fill="#77e" fill-opacity="0.6" d="m-95.49150281252629,-13.875727571288778 l14.58980337503155,-3.552713678800501e-15 l-11.803398874989497,-8.575671257690487 l-14.58980337503155,3.552713678800501e-15z"/>
<path fill="none" stroke="#f44" d="M -88.19660112501052 -13.87572757128878 A 7.294901687515775 7.294901687515775 0 0 0 -101.39320225002103 -18.16356320013402"/>
<path fill="none" stroke="#44f" d="M -100.00000000000001 -22.451398828979265 A 7.294901687515776 7.294901687515776 0 0 0 -86.80339887498948 -18.163563200134025"/>
<path fill="#936" fill-opacity="0.6" d="m-95.49150281252629,13.875727571288778 l14.58980337503155,3.552713678800501e-15 l-11.803398874989497,8.575671257690487 l-14.58980337503155,-3.552713678800501e-15z"/>
<path fill="none" stroke="#f44" d="M -101.39320225002103 18.16356320013402 A 7.294901687515775 7.294901687515775 0 0 0 -88.19660112501052 13.87572757128878"/>
<path fill="none" stroke="#44f" d="M -86.80339887498948 18.163563200134025 A 7.294901687515776 7.294901687515776 0 0 0 -100.00000000000001 22.451398828979265"/>
<path fill="#a59" fill-opacity="0.6" d="m-80.90169943749474,-13.875727571288781 l-14.58980337503155,3.552713678800501e-15 l-4.508497187473708,13.875727571288778 l14.58980337503155,-3.552713678800501e-15z"/>
<path fill="none" stroke="#f44" d="M -88.19660112501052 -13.87572757128878 A 7.294901687515775 7.294901687515775 0 0 0 -83.15594803123159 -6.937863785644392"/>
<path fill="none" stroke="#44f" d="M -92.70509831248422 -1.7763568394002505e-15 A 7.2949016875157735 7.2949016875157735 0 0 0 -97.74575140626314 -6.937863785644389"/>
<path fill="#3de" fill-opacity="0.6" d="m-80.90169943749474,13.875727571288781 l-14.58980337503155,-3.552713678800501e-15 l-4.508497187473708,-13.875727571288778 l14.58980337503155,3.552713678800501e-15z"/>
<path fill="none" stroke="#f44" d="M -83.15594803123159 6.937863785644392 A 7.294901687515775 7.294901687515775 0 0 0 -88.19660112501052 13.87572757128878"/>
<path fill="none" stroke="#44f" d="M -97.74575140626314 6.937863785644389 A 7.2949016875157735 7.2949016875157735 0 0 0 -92.70509831248422 1.7763568394002505e-15"/>
<path fill="#57c" fill-opacity="0.6" d="m-85.41019662496848,-44.902797657958544 l4.508497187473722,13.875727571288778 l-11.803398874989483,8.575671257690498 l-4.508497187473722,-13.875727571288778z"/>
<path fill="none" stroke="#f44" d="M -91.31189606246322 -40.61496202911329 A 7.294901687515775 7.294901687515775 0 0 0 -83.15594803123162 -37.964933872314155"/>
<path fill="none" stroke="#44f" d="M -86.8033988749895 -26.739234457824516 A 7.2949016875157735 7.2949016875157735 0 0 0 -94.9593469062211 -29.389262614623654"/>
<path fill="#c6" fill-opacity="0.6" d="m-85.41019662496848,44.902797657958544 l4.508497187473722,-13.875727571288778 l-11.803398874989483,-8.575671257690498 l-4.508497187473722,13.875727571288778z"/>
<path fill="none" stroke="#f44" d="M -83.15594803123162 37.964933872314155 A 7.294901687515775 7.294901687515775 0 0 0 -91.31189606246322 40.61496202911329"/>
<path fill="none" stroke="#44f" d="M -94.9593469062211 29.389262614623654 A 7.2949016875157735 7.2949016875157735 0 0 0 -86.8033988749895 26.739234457824516"/>
<path fill="#9d6" fill-opacity="0.6" d="m-69.09830056250526,-22.451398828979276 l-11.803398874989497,-8.575671257690491 l-11.803398874989483,8.575671257690498 l11.803398874989497,8.575671257690491z"/>
<path fill="none" stroke="#f44" d="M -75.0 -26.739234457824523 A 7.294901687515777 7.294901687515777 0 0 0 -75.0 -18.16356320013403"/>
<path fill="none" stroke="#44f" d="M -86.80339887498948 -18.16356320013402 A 7.2949016875157735 7.2949016875157735 0 0 0 -86.8033988749895 -26.739234457824516"/>
<path fill="#bca" fill-opacity="0.6" d="m-69.09830056250526,22.451398828979276 l-11.803398874989497,8.575671257690491 l-11.803398874989483,-8.575671257690498 l11.803398874989497,-8.575671257690491z"/>
<path fill="none" stroke="#f44" d="M -75.0 18.16356320013403 A 7.294901687515777 7.294901687515777 0 0 0 -75.0 26.739234457824523"/>
<path fill="none" stroke="#44f" d="M -86.8033988749895 26.739234457824516 A 7.2949016875157735 7.2949016875157735 0 0 0 -86.80339887498948 18.16356320013402"/>
<path fill="#8be" fill-opacity="0.6" d="m-85.41019662496845,0.0 l4.508497187473708,13.875727571288781 l4.508497187473708,-13.875727571288781 l-4.508497187473708,-13.875727571288781z"/>
<path fill="none" stroke="#f44" d="M -83.15594803123159 6.9378637856443905 A 7.294901687515775 7.294901687515775 0 0 0 -83.15594803123159 -6.9378637856443905"/>
<path fill="none" stroke="#44f" d="M -78.6474508437579 -6.9378637856443905 A 7.294901687515775 7.294901687515775 0 0 0 -78.6474508437579 6.9378637856443905"/>
<path fill="#752" fill-opacity="0.6" d="m-80.90169943749476,-58.77852522924732 l11.803398874989483,8.575671257690495 l-4.508497187473694,13.875727571288778 l-11.803398874989483,-8.575671257690495z"/>
<path fill="none" stroke="#f44" d="M -83.1559480312316 -51.84066144360293 A 7.294901687515773 7.294901687515773 0 0 0 -75.00000000000001 -54.49068960040208"/>
<path fill="none" stroke="#44f" d="M -71.35254915624212 -43.26499018591244 A 7.294901687515771 7.294901687515771 0 0 0 -79.50849718747371 -40.6149620291133"/>
<path fill="#fcb" fill-opacity="0.6" d="m-80.90169943749476,-31.027070086669767 l-4.508497187473722,-13.875727571288778 l11.803398874989512,8.575671257690495 l4.508497187473722,13.875727571288778z"/>
<path fill="none" stroke="#f44" d="M -75.0 -26.73923445782452 A 7.294901687515775 7.294901687515775 0 0 0 -83.15594803123162 -37.964933872314155"/>
<path fill="none" stroke="#44f" d="M -79.50849718747372 -40.6149620291133 A 7.294901687515785 7.294901687515785 0 0 0 -71.3525491562421 -29.38926261462366"/>
<path fill="#90c" fill-opacity="0.6" d="m-80.90169943749476,31.027070086669767 l-4.508497187473722,13.875727571288778 l11.803398874989512,-8.575671257690495 l4.508497187473722,-13.875727571288778z"/>
<path fill="none" stroke="#f44" d="M -83.15594803123162 37.964933872314155 A 7.294901687515775 7.294901687515775 0 0 0 -75.0 26.73923445782452"/>
<path fill="none" stroke="#44f" d="M -71.3525491562421 29.38926261462366 A 7.294901687515785 7.294901687515785 0 0 0 -79.50849718747372 40.6149620291133"/>
<path fill="#e24" fill-opacity="0.6" d="m-80.90169943749476,58.77852522924732 l11.803398874989483,-8.575671257690495 l-4.508497187473694,-13.875727571288778 l-11.803398874989483,8.575671257690495z"/>
<path fill="none" stroke="#f44" d="M -75.00000000000001 54.49068960040208 A 7.294901687515773 7.294901687515773 0 0 0 -83.1559480312316 51.84066144360293"/>
<path fill="none" stroke="#44f" d="M -79.50849718747371 40.6149620291133 A 7.294901687515771 7.294901687515771 0 0 0 -71.35254915624212 43.26499018591244"/>
<path fill="#5be" fill-opacity="0.6" d="m-69.09830056250526,-22.451398828979276 l4.508497187473708,13.87572757128878 l-11.803398874989483,8.575671257690496 l-4.508497187473708,-13.87572757128878z"/>
<path fill="none" stroke="#f44" d="M -75.0 -18.16356320013403 A 7.294901687515774 7.294901687515774 0 0 0 -66.84405196876841 -15.513535043334887"/>
<path fill="none" stroke="#44f" d="M -70.49150281252629 -4.287835628845248 A 7.2949016875157735 7.2949016875157735 0 0 0 -78.6474508437579 -6.93786378564439"/>
<path fill="#1d" fill-opacity="0.6" d="m-69.09830056250526,22.451398828979276 l4.508497187473708,-13.87572757128878 l-11.803398874989483,-8.575671257690496 l-4.508497187473708,13.87572757128878z"/>
<path fill="none" stroke="#f44" d="M -66.84405196876841 15.513535043334887 A 7.294901687515774 7.294901687515774 0 0 0 -75.0 18.16356320013403"/>
<path fill="none" stroke="#44f" d="M -78.6474508437579 6.93786378564439 A 7.2949016875157735 7.2949016875157735 0 0 0 -70.49150281252629 4.287835628845248"/>
<path fill="#4fd" fill-opacity="0.6" d="m-80.90169943749476,-58.77852522924732 l11.803398874989483,8.575671257690495 l11.80339887498949,-8.575671257690495 l-11.803398874989483,-8.575671257690495z"/>
<path fill="none" stroke="#f44" d="M -75.00000000000001 -54.49068960040208 A 7.294901687515773 7.294901687515773 0 0 0 -75.00000000000001 -63.066360858092565"/>
<path fill="none" stroke="#44f" d="M -63.19660112501053 -63.066360858092565 A 7.294901687515775 7.294901687515775 0 0 0 -63.19660112501053 -54.49068960040208"/>
<path fill="#cd2" fill-opacity="0.6" d="m-80.90169943749476,58.77852522924732 l11.803398874989483,-8.575671257690495 l11.80339887498949,8.575671257690495 l-11.803398874989483,8.575671257690495z"/>
<path fill="none" stroke="#f44" d="M -75.00000000000001 63.066360858092565 A 7.294901687515773 7.294901687515773 0 0 0 -75.00000000000001 54.49068960040208"/>
<path fill="none" stroke="#44f" d="M -63.19660112501053 54.49068960040208 A 7.294901687515775 7.294901687515775 0 0 0 -63.19660112501053 63.066360858092565"/>
<path fill="#a38" fill-opacity="0.6" d="m-64.58980337503155,-36.32712640026805 l-4.508497187473708,13.875727571288774 l-4.508497187473708,-13.875727571288774 l4.508497187473708,-13.875727571288774z"/>
<path fill="none" stroke="#f44" d="M -66.84405196876841 -43.26499018591244 A 7.294901687515772 7.294901687515772 0 0 0 -66.84405196876841 -29.38926261462366"/>
<path fill="none" stroke="#44f" d="M -71.3525491562421 -29.38926261462366 A 7.294901687515772 7.294901687515772 0 0 0 -71.3525491562421 -43.26499018591244"/>
<path fill="#957" fill-opacity="0.6" d="m-64.58980337503155,36.32712640026805 l-4.508497187473708,-13.875727571288774 l-4.508497187473708,13.875727571288774 l4.508497187473708,13.875727571288774z"/>
<path fill="none" stroke="#f44" d="M -66.84405196876841 29.38926261462366 A 7.294901687515772 7.294901687515772 0 0 0 -66.84405196876841 43.26499018591244"/>
<path fill="none" stroke="#44f" d="M -71.3525491562421 43.26499018591244 A 7.294901687515772 7.294901687515772 0 0 0 -71.3525491562421 29.38926261462366"/>
<path fill="#a7f" fill-opacity="0.6" d="m-52.78640450004205,0.0 l-11.803398874989497,8.575671257690496 l-11.803398874989483,-8.575671257690496 l11.803398874989497,-8.575671257690496z"/>
<path fill="none" stroke="#f44" d="M -58.688103937536795 -4.287835628845248 A 7.294901687515779 7.294901687515779 0 0 0 -58.6881039375368 4.287835628845248"/>
<path fill="none" stroke="#44f" d="M -70.49150281252629 4.287835628845248 A 7.2949016875157735 7.2949016875157735 0 0 0 -70.49150281252628 -4.287835628845248"/>
<path fill="#157" fill-opacity="0.6" d="m-64.58980337503155,-8.575671257690496 l11.803398874989497,8.575671257690496 l-4.508497187473722,-13.875727571288781 l-11.803398874989497,-8.575671257690496z"/>
<path fill="none" stroke="#f44" d="M -58.6881039375368 -4.287835628845248 A 7.294901687515779 7.294901687515779 0 0 0 -66.84405196876841 -15.513535043334887"/>
<path fill="none" stroke="#44f" d="M -63.196601125010524 -18.16356320013403 A 7.294901687515777 7.294901687515777 0 0 0 -55.040653093778914 -6.9378637856443905"/>
<path fill="#321" fill-opacity="0.6" d="m-64.58980337503155,8.575671257690496 l11.803398874989497,-8.575671257690496 l-4.508497187473722,13.875727571288781 l-11.803398874989497,8.575671257690496z"/>
<path fill="none" stroke="#f44" d="M -66.84405196876841 15.513535043334887 A 7.294901687515779 7.294901687515779 0 0 0 -58.6881039375368 4.287835628845248"/>
<path fill="none" stroke="#44f" d="M -55.040653093778914 6.9378637856443905 A 7.294901687515777 7.294901687515777 0 0 0 -63.196601125010524 18.16356320013403"/>
<path fill="#5f9" fill-opacity="0.6" d="m-69.09830056250527,-50.20285397155683 l14.58980337503155,0.0 l4.508497187473708,13.875727571288778 l-14.58980337503155,-0.0z"/>
<path fill="none" stroke="#f44" d="M -66.84405196876841 -43.26499018591244 A 7.294901687515775 7.294901687515775 0 0 0 -61.8033988749895 -50.20285397155683"/>
<path fill="none" stroke="#44f" d="M -52.25424859373687 -43.26499018591244 A 7.2949016875157735 7.2949016875157735 0 0 0 -57.29490168751579 -36.32712640026805"/>
<path fill="#e28" fill-opacity="0.6" d="m-69.09830056250527,50.20285397155683 l14.58980337503155,0.0 l4.508497187473708,-13.875727571288778 l-14.58980337503155,-0.0z"/>
<path fill="none" stroke="#f44" d="M -61.8033988749895 50.20285397155683 A 7.294901687515775 7.294901687515775 0 0 0 -66.84405196876841 43.26499018591244"/>
<path fill="none" stroke="#44f" d="M -57.29490168751579 36.32712640026805 A 7.2949016875157735 7.2949016875157735 0 0 0 -52.25424859373687 43.26499018591244"/>
<path fill="#16e" fill-opacity="0.6" d="m-69.09830056250527,-67.35419648693781 l14.58980337503155,0.0 l4.508497187473722,-13.875727571288778 l-14.58980337503155,-0.0z"/>
<path fill="none" stroke="#f44" d="M -61.8033988749895 -67.35419648693781 A 7.294901687515775 7.294901687515775 0 0 0 -66.84405196876841 -74.2920602725822"/>
<path fill="none" stroke="#44f" d="M -57.294901687515775 -81.22992405822659 A 7.294901687515775 7.294901687515775 0 0 0 -52.25424859373686 -74.2920602725822"/>
<path fill="#bbc" fill-opacity="0.6" d="m-69.09830056250526,-22.451398828979276 l4.508497187473708,-13.875727571288774 l14.589803375031536,0.0 l-4.508497187473708,13.875727571288774z"/>
<path fill="none" stroke="#f44" d="M -61.80339887498949 -22.451398828979276 A 7.294901687515772 7.294901687515772 0 0 0 -66.84405196876841 -29.38926261462366"/>
<path fill="none" stroke="#44f" d="M -57.29490168751578 -36.32712640026805 A 7.294901687515768 7.294901687515768 0 0 0 -52.25424859373687 -29.38926261462366"/>
<path fill="#941" fill-opacity="0.6" d="m-69.09830056250526,22.451398828979276 l4.508497187473708,13.875727571288774 l14.589803375031536,0.0 l-4.508497187473708,-13.875727571288774z"/>
<path fill="none" stroke="#f44" d="M -66.84405196876841 29.38926261462366 A 7.294901687515772 7.294901687515772 0 0 0 -61.80339887498949 22.451398828979276"/>
<path fill="none" stroke="#44f" d="M -52.25424859373687 29.38926261462366 A 7.294901687515768 7.294901687515768 0 0 0 -57.29490168751578 36.32712640026805"/>
<path fill="#568" fill-opacity="0.6" d="m-69.09830056250527,67.35419648693781 l14.58980337503155,0.0 l4.508497187473722,13.875727571288778 l-14.58980337503155,-0.0z"/>
<path fill="none" stroke="#f44" d="M -66.84405196876841 74.2920602725822 A 7.294901687515775 7.294901687515775 0 0 0 -61.8033988749895 67.35419648693781"/>
<path fill="none" stroke="#44f" d="M -52.25424859373686 74.2920602725822 A 7.294901687515775 7.294901687515775 0 0 0 -57.294901687515775 81.22992405822659"/>
<path fill="#be6" fill-opacity="0.6" d="m-54.50849718747372,-67.35419648693781 l-14.58980337503155,0.0 l11.80339887498949,8.575671257690487 l14.58980337503155,-0.0z"/>
<path fill="none" stroke="#f44" d="M -61.8033988749895 -67.35419648693781 A 7.294901687515775 7.294901687515775 0 0 0 -48.60679774997898 -63.066360858092565"/>
<path fill="none" stroke="#44f" d="M -50.00000000000001 -58.77852522924732 A 7.294901687515773 7.294901687515773 0 0 0 -63.19660112501053 -63.066360858092565"/>
<path fill="#54e" fill-opacity="0.6" d="m-54.50849718747372,-50.20285397155683 l11.803398874989483,-8.575671257690495 l-14.589803375031543,0.0 l-11.803398874989483,8.575671257690495z"/>
<path fill="none" stroke="#f44" d="M -48.60679774997898 -54.49068960040208 A 7.294901687515773 7.294901687515773 0 0 0 -61.8033988749895 -50.20285397155683"/>
<path fill="none" stroke="#44f" d="M -63.19660112501053 -54.49068960040208 A 7.294901687515772 7.294901687515772 0 0 0 -50.000000000000014 -58.77852522924732"/>
<path fill="#28b" fill-opacity="0.6" d="m-54.50849718747372,50.20285397155683 l11.803398874989483,8.575671257690495 l-14.589803375031543,0.0 l-11.803398874989483,-8.575671257690495z"/>
<path fill="none" stroke="#f44" d="M -61.8033988749895 50.20285397155683 A 7.294901687515773 7.294901687515773 0 0 0 -48.60679774997898 54.49068960040208"/>
<path fill="none" stroke="#44f" d="M -50.000000000000014 58.77852522924732 A 7.294901687515772 7.294901687515772 0 0 0 -63.19660112501053 54.49068960040208"/>
<path fill="#dd5" fill-opacity="0.6" d="m-54.50849718747372,67.35419648693781 l-14.58980337503155,0.0 l11.80339887498949,-8.575671257690487 l14.58980337503155,-0.0z"/>
<path fill="none" stroke="#f44" d="M -48.60679774997898 63.066360858092565 A 7.294901687515775 7.294901687515775 0 0 0 -61.8033988749895 67.35419648693781"/>
<path fill="none" stroke="#44f" d="M -63.19660112501053 63.066360858092565 A 7.294901687515773 7.294901687515773 0 0 0 -50.00000000000001 58.77852522924732"/>
<path fill="#149" fill-opacity="0.6" d="m-54.50849718747372,-22.451398828979272 l-14.589803375031536,-3.552713678800501e-15 l11.803398874989483,8.575671257690495 l14.589803375031536,3.552713678800501e-15z"/>
<path fill="none" stroke="#f44" d="M -61.80339887498949 -22.451398828979272 A 7.294901687515768 7.294901687515768 0 0 0 -48.60679774997898 -18.163563200134025"/>
<path fill="none" stroke="#44f" d="M -50.00000000000001 -13.87572757128878 A 7.294901687515773 7.294901687515773 0 0 0 -63.19660112501052 -18.16356320013403"/>
<path fill="#9cf" fill-opacity="0.6" d="m-54.50849718747372,22.451398828979272 l-14.589803375031536,3.552713678800501e-15 l11.803398874989483,-8.575671257690495 l14.589803375031536,-3.552713678800501e-15z"/>
<path fill="none" stroke="#f44" d="M -48.60679774997898 18.163563200134025 A 7.294901687515768 7.294901687515768 0 0 0 -61.80339887498949 22.451398828979272"/>
<path fill="none" stroke="#44f" d="M -63.19660112501052 18.16356320013403 A 7.294901687515773 7.294901687515773 0 0 0 -50.00000000000001 13.87572757128878"/>
<path fill="#b77" fill-opacity="0.6" d="m-38.19660112501051,-0.0 l-14.589803375031543,0.0 l-4.508497187473722,-13.875727571288781 l14.589803375031543,-0.0z"/>
<path fill="none" stroke="#f44" d="M -40.45084971874737 -6.9378637856443905 A 7.294901687515772 7.294901687515772 0 0 0 -45.49150281252628 0.0"/>
<path fill="none" stroke="#44f" d="M -55.040653093778914 -6.9378637856443905 A 7.294901687515777 7.294901687515777 0 0 0 -50.0 -13.875727571288781"/>
<path fill="#80c" fill-opacity="0.6" d="m-38.19660112501051,0.0 l-14.589803375031543,0.0 l-4.508497187473722,13.875727571288781 l14.589803375031543,-0.0z"/>
<path fill="none" stroke="#f44" d="M -45.49150281252628 0.0 A 7.294901687515772 7.294901687515772 0 0 0 -40.45084971874737 6.9378637856443905"/>
<path fill="none" stroke="#44f" d="M -50.0 13.875727571288781 A 7.294901687515777 7.294901687515777 0 0 0 -55.040653093778914 6.9378637856443905"/>
<path fill="#a42" fill-opacity="0.6" d="m-42.70509831248424,-58.77852522924732 l-11.803398874989483,8.575671257690495 l4.508497187473708,13.875727571288778 l11.803398874989483,-8.575671257690495z"/>
<path fill="none" stroke="#f44" d="M -48.60679774997898 -54.49068960040208 A 7.294901687515773 7.294901687515773 0 0 0 -40.450849718747385 -51.84066144360293"/>
<path fill="none" stroke="#44f" d="M -44.09830056250527 -40.6149620291133 A 7.2949016875157735 7.2949016875157735 0 0 0 -52.25424859373687 -43.26499018591244"/>
<path fill="#f0f" fill-opacity="0.6" d="m-42.70509831248424,58.77852522924732 l-11.803398874989483,-8.575671257690495 l4.508497187473708,-13.875727571288778 l11.803398874989483,8.575671257690495z"/>
<path fill="none" stroke="#f44" d="M -40.450849718747385 51.84066144360293 A 7.294901687515773 7.294901687515773 0 0 0 -48.60679774997898 54.49068960040208"/>
<path fill="none" stroke="#44f" d="M -52.25424859373687 43.26499018591244 A 7.2949016875157735 7.2949016875157735 0 0 0 -44.09830056250527 40.6149620291133"/>
<path fill="#76c" fill-opacity="0.6" d="m-42.70509831248424,-58.77852522924732 l-11.803398874989483,-8.575671257690487 l4.508497187473722,-13.875727571288778 l11.803398874989483,8.575671257690487z"/>
<path fill="none" stroke="#f44" d="M -40.45084971874738 -65.71638901489172 A 7.294901687515771 7.294901687515771 0 0 0 -48.60679774997898 -63.066360858092565"/>
<path fill="none" stroke="#44f" d="M -52.25424859373686 -74.2920602725822 A 7.294901687515775 7.294901687515775 0 0 0 -44.09830056250526 -76.94208842938134"/>
<path fill="#56" fill-opacity="0.6" d="m-42.70509831248423,-13.875727571288776 l-11.80339887498949,-8.575671257690496 l4.508497187473708,-13.875727571288778 l11.80339887498949,8.575671257690496z"/>
<path fill="none" stroke="#f44" d="M -40.45084971874738 -20.813591356933166 A 7.294901687515775 7.294901687515775 0 0 0 -48.60679774997898 -18.163563200134025"/>
<path fill="none" stroke="#44f" d="M -52.25424859373687 -29.38926261462366 A 7.2949016875157735 7.2949016875157735 0 0 0 -44.09830056250527 -32.0392907714228"/>
<path fill="#f5e" fill-opacity="0.6" d="m-42.70509831248423,13.875727571288776 l-11.80339887498949,8.575671257690496 l4.508497187473708,13.875727571288778 l11.80339887498949,-8.575671257690496z"/>
<path fill="none" stroke="#f44" d="M -48.60679774997898 18.163563200134025 A 7.294901687515775 7.294901687515775 0 0 0 -40.45084971874738 20.813591356933166"/>
<path fill="none" stroke="#44f" d="M -44.09830056250527 32.0392907714228 A 7.2949016875157735 7.2949016875157735 0 0 0 -52.25424859373687 29.38926261462366"/>
<path fill="#945" fill-opacity="0.6" d="m-42.70509831248424,58.77852522924732 l-11.803398874989483,8.575671257690487 l4.508497187473722,13.875727571288778 l11.803398874989483,-8.575671257690487z"/>
<path fill="none" stroke="#f44" d="M -48.60679774997898 63.066360858092565 A 7.294901687515771 7.294901687515771 0 0 0 -40.45084971874738 65.71638901489172"/>
<path fill="none" stroke="#44f" d="M -44.09830056250526 76.94208842938134 A 7.294901687515775 7.294901687515775 0 0 0 -52.25424859373686 74.2920602725822"/>
<path fill="#144" fill-opacity="0.6" d="m-42.705098312484225,-86.52998037182488 l4.508497187473701,13.875727571288792 l-11.803398874989476,-8.575671257690502 l-4.508497187473701,-13.875727571288792z"/>
<path fill="none" stroke="#f44" d="M -48.606797749978966 -90.81781600067012 A 7.294901687515778 7.294901687515778 0 0 0 -40.45084971874738 -79.59211658618048"/>
<path fill="none" stroke="#44f" d="M -44.09830056250526 -76.94208842938133 A 7.294901687515772 7.294901687515772 0 0 0 -52.25424859373685 -88.16778784387098"/>
<path fill="#40e" fill-opacity="0.6" d="m-42.705098312484225,86.52998037182488 l4.508497187473701,-13.875727571288792 l-11.803398874989476,8.575671257690502 l-4.508497187473701,13.875727571288792z"/>
<path fill="none" stroke="#f44" d="M -40.45084971874738 79.59211658618048 A 7.294901687515778 7.294901687515778 0 0 0 -48.606797749978966 90.81781600067012"/>
<path fill="none" stroke="#44f" d="M -52.25424859373685 88.16778784387098 A 7.294901687515772 7.294901687515772 0 0 0 -44.09830056250526 76.94208842938133"/>
<path fill="#421" fill-opacity="0.6" d="m-26.393202250021034,-36.32712640026804 l-11.803398874989497,-8.575671257690495 l-11.803398874989483,8.575671257690487 l11.803398874989497,8.575671257690495z"/>
<path fill="none" stroke="#f44" d="M -32.29490168751578 -40.614962029113286 A 7.294901687515779 7.294901687515779 0 0 0 -32.294901687515775 -32.0392907714228"/>
<path fill="none" stroke="#44f" d="M -44.098300562505266 -32.0392907714228 A 7.294901687515771 7.294901687515771 0 0 0 -44.09830056250527 -40.61496202911329"/>
<path fill="#a7a" fill-opacity="0.6" d="m-26.393202250021034,36.32712640026804 l-11.803398874989497,8.575671257690495 l-11.803398874989483,-8.575671257690487 l11.803398874989497,-8.575671257690495z"/>
<path fill="none" stroke="#f44" d="M -32.294901687515775 32.0392907714228 A 7.294901687515779 7.294901687515779 0 0 0 -32.29490168751578 40.614962029113286"/>
<path fill="none" stroke="#44f" d="M -44.09830056250527 40.61496202911329 A 7.294901687515771 7.294901687515771 0 0 0 -44.098300562505266 32.0392907714228"/>
<path fill="#95a" fill-opacity="0.6" d="m-38.19660112501053,-44.90279765795854 l-4.508497187473708,-13.875727571288785 l11.803398874989487,8.575671257690502 l4.508497187473708,13.875727571288785z"/>
<path fill="none" stroke="#f44" d="M -32.29490168751579 -40.614962029113286 A 7.294901687515776 7.294901687515776 0 0 0 -40.450849718747385 -51.840661443602926"/>
<path fill="none" stroke="#44f" d="M -36.8033988749895 -54.49068960040207 A 7.294901687515776 7.294901687515776 0 0 0 -28.6474508437579 -43.264990185912424"/>
<path fill="#9cc" fill-opacity="0.6" d="m-38.19660112501053,-27.751455142577555 l11.803398874989497,-8.575671257690487 l-4.5084971874737185,13.875727571288767 l-11.803398874989497,8.575671257690487z"/>
<path fill="none" stroke="#f44" d="M -40.45084971874739 -20.813591356933173 A 7.294901687515776 7.294901687515776 0 0 0 -32.29490168751578 -32.0392907714228"/>
<path fill="none" stroke="#44f" d="M -28.647450843757895 -29.38926261462366 A 7.294901687515769 7.294901687515769 0 0 0 -36.803398874989504 -18.163563200134032"/>
<path fill="#221" fill-opacity="0.6" d="m-38.19660112501053,27.751455142577555 l11.803398874989497,8.575671257690487 l-4.5084971874737185,-13.875727571288767 l-11.803398874989497,-8.575671257690487z"/>
<path fill="none" stroke="#f44" d="M -32.29490168751578 32.0392907714228 A 7.294901687515776 7.294901687515776 0 0 0 -40.45084971874739 20.813591356933173"/>
<path fill="none" stroke="#44f" d="M -36.803398874989504 18.163563200134032 A 7.294901687515769 7.294901687515769 0 0 0 -28.647450843757895 29.38926261462366"/>
<path fill="#314" fill-opacity="0.6" d="m-38.19660112501053,44.90279765795854 l-4.508497187473708,13.875727571288785 l11.803398874989487,-8.575671257690502 l4.508497187473708,-13.875727571288785z"/>
<path fill="none" stroke="#f44" d="M -40.450849718747385 51.840661443602926 A 7.294901687515776 7.294901687515776 0 0 0 -32.29490168751579 40.614962029113286"/>
<path fill="none" stroke="#44f" d="M -28.6474508437579 43.264990185912424 A 7.294901687515776 7.294901687515776 0 0 0 -36.8033988749895 54.49068960040207"/>
<path fill="#756" fill-opacity="0.6" d="m-38.196601125010524,-72.65425280053609 l-4.508497187473701,-13.875727571288792 l11.803398874989483,-8.575671257690487 l4.508497187473701,13.875727571288792z"/>
<path fill="none" stroke="#f44" d="M -32.29490168751578 -76.94208842938133 A 7.294901687515778 7.294901687515778 0 0 0 -40.45084971874738 -79.59211658618048"/>
<path fill="none" stroke="#44f" d="M -36.80339887498948 -90.81781600067012 A 7.294901687515771 7.294901687515771 0 0 0 -28.64745084375789 -88.16778784387097"/>
<path fill="#c61" fill-opacity="0.6" d="m-38.196601125010524,72.65425280053609 l-4.508497187473701,13.875727571288792 l11.803398874989483,8.575671257690487 l4.508497187473701,-13.875727571288792z"/>
<path fill="none" stroke="#f44" d="M -40.45084971874738 79.59211658618048 A 7.294901687515778 7.294901687515778 0 0 0 -32.29490168751578 76.94208842938133"/>
<path fill="none" stroke="#44f" d="M -28.64745084375789 88.16778784387097 A 7.294901687515771 7.294901687515771 0 0 0 -36.80339887498948 90.81781600067012"/>
<path fill="#40d" fill-opacity="0.6" d="m-38.19660112501051,-0.0 l11.803398874989476,-8.575671257690495 l-4.5084971874737185,-13.875727571288781 l-11.803398874989476,8.575671257690495z"/>
<path fill="none" stroke="#f44" d="M -32.294901687515775 -4.287835628845247 A 7.294901687515769 7.294901687515769 0 0 0 -40.450849718747364 -6.9378637856443905"/>
<path fill="none" stroke="#44f" d="M -36.80339887498949 -18.16356320013403 A 7.294901687515777 7.294901687515777 0 0 0 -28.647450843757895 -15.513535043334885"/>
<path fill="#67c" fill-opacity="0.6" d="m-38.19660112501051,0.0 l11.803398874989476,8.575671257690495 l-4.5084971874737185,13.875727571288781 l-11.803398874989476,-8.575671257690495z"/>
<path fill="none" stroke="#f44" d="M -40.450849718747364 6.9378637856443905 A 7.294901687515769 7.294901687515769 0 0 0 -32.294901687515775 4.287835628845247"/>
<path fill="none" stroke="#44f" d="M -28.647450843757895 15.513535043334885 A 7.294901687515777 7.294901687515777 0 0 0 -36.80339887498949 18.16356320013403"/>
<path fill="#b01" fill-opacity="0.6" d="m-42.70509831248424,-58.77852522924732 l14.58980337503155,7.105427357601002e-15 l4.5084971874737185,-13.875727571288785 l-14.58980337503155,-7.105427357601002e-15z"/>
<path fill="none" stroke="#f44" d="M -35.410196624968464 -58.77852522924732 A 7.294901687515775 7.294901687515775 0 0 0 -40.45084971874738 -65.71638901489172"/>
<path fill="none" stroke="#44f" d="M -30.90169943749474 -72.65425280053611 A 7.294901687515777 7.294901687515777 0 0 0 -25.861046343715827 -65.7163890148917"/>
<path fill="#2d8" fill-opacity="0.6" d="m-42.70509831248424,58.77852522924732 l14.58980337503155,-7.105427357601002e-15 l4.5084971874737185,13.875727571288785 l-14.58980337503155,7.105427357601002e-15z"/>
<path fill="none" stroke="#f44" d="M -40.45084971874738 65.71638901489172 A 7.294901687515775 7.294901687515775 0 0 0 -35.410196624968464 58.77852522924732"/>
<path fill="none" stroke="#44f" d="M -25.861046343715827 65.7163890148917 A 7.294901687515777 7.294901687515777 0 0 0 -30.90169943749474 72.65425280053611"/>
<path fill="#455" fill-opacity="0.6" d="m-28.11529493745269,-58.778525229247315 l11.803398874989494,8.575671257690495 l-14.589803375031558,0.0 l-11.803398874989494,-8.575671257690495z"/>
<path fill="none" stroke="#f44" d="M -35.410196624968464 -58.778525229247315 A 7.294901687515776 7.294901687515776 0 0 0 -22.21359549995794 -54.490689600402064"/>
<path fill="none" stroke="#44f" d="M -23.606797749978973 -50.20285397155682 A 7.294901687515779 7.294901687515779 0 0 0 -36.8033988749895 -54.490689600402064"/>
<path fill="#f47" fill-opacity="0.6" d="m-28.11529493745269,58.778525229247315 l11.803398874989494,-8.575671257690495 l-14.589803375031558,0.0 l-11.803398874989494,8.575671257690495z"/>
<path fill="none" stroke="#f44" d="M -22.21359549995794 54.490689600402064 A 7.294901687515776 7.294901687515776 0 0 0 -35.410196624968464 58.778525229247315"/>
<path fill="none" stroke="#44f" d="M -36.8033988749895 54.490689600402064 A 7.294901687515779 7.294901687515779 0 0 0 -23.606797749978973 50.20285397155682"/>
<path fill="#95f" fill-opacity="0.6" d="m-26.39320225002103,-81.2299240582266 l14.58980337503155,2.842170943040401e-14 l-11.80339887498949,8.575671257690473 l-14.58980337503155,-2.842170943040401e-14z"/>
<path fill="none" stroke="#f44" d="M -32.294901687515775 -76.94208842938136 A 7.294901687515775 7.294901687515775 0 0 0 -19.098300562505255 -81.22992405822659"/>
<path fill="none" stroke="#44f" d="M -17.705098312484225 -76.94208842938133 A 7.294901687515769 7.294901687515769 0 0 0 -30.90169943749474 -72.65425280053611"/>
<path fill="#aed" fill-opacity="0.6" d="m-26.393202250021034,-8.575671257690495 l14.589803375031547,0.0 l-11.803398874989483,8.575671257690495 l-14.589803375031547,-0.0z"/>
<path fill="none" stroke="#f44" d="M -32.294901687515775 -4.287835628845247 A 7.2949016875157735 7.2949016875157735 0 0 0 -19.09830056250526 -8.575671257690495"/>
<path fill="none" stroke="#44f" d="M -17.70509831248423 -4.287835628845247 A 7.294901687515773 7.294901687515773 0 0 0 -30.90169943749474 0.0"/>
<path fill="#da5" fill-opacity="0.6" d="m-26.393202250021034,8.575671257690495 l14.589803375031547,0.0 l-11.803398874989483,-8.575671257690495 l-14.589803375031547,-0.0z"/>
<path fill="none" stroke="#f44" d="M -19.09830056250526 8.575671257690495 A 7.2949016875157735 7.2949016875157735 0 0 0 -32.294901687515775 4.287835628845247"/>
<path fill="none" stroke="#44f" d="M -30.90169943749474 0.0 A 7.294901687515773 7.294901687515773 0 0 0 -17.70509831248423 4.287835628845247"/>
<path fill="#779" fill-opacity="0.6" d="m-26.39320225002103,81.2299240582266 l14.58980337503155,-2.842170943040401e-14 l-11.80339887498949,-8.575671257690473 l-14.58980337503155,2.842170943040401e-14z"/>
<path fill="none" stroke="#f44" d="M -19.098300562505255 81.22992405822659 A 7.294901687515775 7.294901687515775 0 0 0 -32.294901687515775 76.94208842938136"/>
<path fill="none" stroke="#44f" d="M -30.90169943749474 72.65425280053611 A 7.294901687515769 7.294901687515769 0 0 0 -17.705098312484225 76.94208842938133"/>
<path fill="#cf1" fill-opacity="0.6" d="m-11.803398874989483,-36.32712640026804 l-4.508497187473711,-13.875727571288778 l-14.589803375031558,0.0 l4.508497187473711,13.875727571288778z"/>
<path fill="none" stroke="#f44" d="M -14.057647468726339 -43.26499018591243 A 7.2949016875157735 7.2949016875157735 0 0 0 -19.098300562505262 -36.32712640026804"/>
<path fill="none" stroke="#44f" d="M -28.647450843757895 -43.26499018591243 A 7.294901687515779 7.294901687515779 0 0 0 -23.606797749978973 -50.20285397155682"/>
<path fill="#16b" fill-opacity="0.6" d="m-11.803398874989483,-36.32712640026804 l-4.508497187473715,13.87572757128877 l-14.589803375031554,-3.552713678800501e-15 l4.508497187473715,-13.87572757128877z"/>
<path fill="none" stroke="#f44" d="M -19.09830056250526 -36.32712640026804 A 7.294901687515772 7.294901687515772 0 0 0 -14.05764746872634 -29.389262614623657"/>
<path fill="none" stroke="#44f" d="M -23.606797749978973 -22.451398828979272 A 7.294901687515777 7.294901687515777 0 0 0 -28.647450843757895 -29.38926261462366"/>
<path fill="#e9d" fill-opacity="0.6" d="m-11.803398874989487,-8.575671257690495 l-4.508497187473711,-13.875727571288778 l-14.589803375031554,-3.552713678800501e-15 l4.508497187473711,13.875727571288778z"/>
<path fill="none" stroke="#f44" d="M -14.057647468726342 -15.513535043334883 A 7.2949016875157735 7.2949016875157735 0 0 0 -19.098300562505266 -8.575671257690496"/>
<path fill="none" stroke="#44f" d="M -28.647450843757895 -15.513535043334887 A 7.294901687515777 7.294901687515777 0 0 0 -23.606797749978973 -22.451398828979272"/>
<path fill="#2a4" fill-opacity="0.6" d="m-11.803398874989487,8.575671257690495 l-4.508497187473711,13.875727571288778 l-14.589803375031554,3.552713678800501e-15 l4.508497187473711,-13.875727571288778z"/>
<path fill="none" stroke="#f44" d="M -19.098300562505266 8.575671257690496 A 7.2949016875157735 7.2949016875157735 0 0 0 -14.057647468726342 15.513535043334883"/>
<path fill="none" stroke="#44f" d="M -23.606797749978973 22.451398828979272 A 7.294901687515777 7.294901687515777 0 0 0 -28.647450843757895 15.513535043334887"/>
<path fill="#24a" fill-opacity="0.6" d="m-11.803398874989483,36.32712640026804 l-4.508497187473715,-13.87572757128877 l-14.589803375031554,3.552713678800501e-15 l4.508497187473715,13.87572757128877z"/>
<path fill="none" stroke="#f44" d="M -14.05764746872634 29.389262614623657 A 7.294901687515772 7.294901687515772 0 0 0 -19.09830056250526 36.32712640026804"/>
<path fill="none" stroke="#44f" d="M -28.647450843757895 29.38926261462366 A 7.294901687515777 7.294901687515777 0 0 0 -23.606797749978973 22.451398828979272"/>
<path fill="#aa9" fill-opacity="0.6" d="m-11.803398874989483,36.32712640026804 l-4.508497187473711,13.875727571288778 l-14.589803375031558,0.0 l4.508497187473711,-13.875727571288778z"/>
<path fill="none" stroke="#f44" d="M -19.098300562505262 36.32712640026804 A 7.2949016875157735 7.2949016875157735 0 0 0 -14.057647468726339 43.26499018591243"/>
<path fill="none" stroke="#44f" d="M -23.606797749978973 50.20285397155682 A 7.294901687515779 7.294901687515779 0 0 0 -28.647450843757895 43.26499018591243"/>
<path fill="#bf2" fill-opacity="0.6" d="m-11.80339887498948,-81.22992405822657 l-4.5084971874737185,-13.875727571288792 l-14.589803375031543,0.0 l4.5084971874737185,13.875727571288792z"/>
<path fill="none" stroke="#f44" d="M -14.057647468726339 -88.16778784387097 A 7.294901687515781 7.294901687515781 0 0 0 -19.09830056250525 -81.22992405822657"/>
<path fill="none" stroke="#44f" d="M -28.64745084375788 -88.16778784387097 A 7.294901687515772 7.294901687515772 0 0 0 -23.60679774997897 -95.10565162951536"/>
<path fill="#cb9" fill-opacity="0.6" d="m-11.80339887498948,81.22992405822657 l-4.5084971874737185,13.875727571288792 l-14.589803375031543,0.0 l4.5084971874737185,-13.875727571288792z"/>
<path fill="none" stroke="#f44" d="M -19.09830056250525 81.22992405822657 A 7.294901687515781 7.294901687515781 0 0 0 -14.057647468726339 88.16778784387097"/>
<path fill="none" stroke="#44f" d="M -23.60679774997897 95.10565162951536 A 7.294901687515772 7.294901687515772 0 0 0 -28.64745084375788 88.16778784387097"/>
<path fill="#53b" fill-opacity="0.6" d="m-16.311896062463195,-50.20285397155682 l4.508497187473715,-13.875727571288778 l-11.80339887498949,-8.575671257690502 l-4.508497187473715,13.875727571288778z"/>
<path fill="none" stroke="#f44" d="M -14.057647468726337 -57.14071775720121 A 7.2949016875157735 7.2949016875157735 0 0 0 -22.21359549995794 -54.49068960040207"/>
<path fill="none" stroke="#44f" d="M -25.861046343715827 -65.71638901489172 A 7.294901687515778 7.294901687515778 0 0 0 -17.705098312484225 -68.36641717169084"/>
<path fill="#b41" fill-opacity="0.6" d="m-16.311896062463195,50.20285397155682 l4.508497187473715,13.875727571288778 l-11.80339887498949,8.575671257690502 l-4.508497187473715,-13.875727571288778z"/>
<path fill="none" stroke="#f44" d="M -22.21359549995794 54.49068960040207 A 7.2949016875157735 7.2949016875157735 0 0 0 -14.057647468726337 57.14071775720121"/>
<path fill="none" stroke="#44f" d="M -17.705098312484225 68.36641717169084 A 7.294901687515778 7.294901687515778 0 0 0 -25.861046343715827 65.71638901489172"/>
<path fill="#162" fill-opacity="0.6" d="m-16.311896062463198,-95.10565162951536 l4.5084971874737185,13.875727571288792 l4.508497187473706,-13.875727571288792 l-4.5084971874737185,-13.875727571288792z"/>
<path fill="none" stroke="#f44" d="M -14.057647468726339 -88.16778784387097 A 7.294901687515781 7.294901687515781 0 0 0 -14.057647468726344 -102.04351541515976"/>
<path fill="none" stroke="#44f" d="M -9.549150281252633 -102.04351541515976 A 7.29490168751578 7.29490168751578 0 0 0 -9.549150281252626 -88.16778784387097"/>
<path fill="#2f7" fill-opacity="0.6" d="m-16.311896062463198,95.10565162951536 l4.5084971874737185,-13.875727571288792 l4.508497187473706,13.875727571288792 l-4.5084971874737185,13.875727571288792z"/>
<path fill="none" stroke="#f44" d="M -14.057647468726344 102.04351541515976 A 7.294901687515781 7.294901687515781 0 0 0 -14.057647468726339 88.16778784387097"/>
<path fill="none" stroke="#44f" d="M -9.549150281252626 88.16778784387097 A 7.29490168751578 7.29490168751578 0 0 0 -9.549150281252633 102.04351541515976"/>
<path fill="#31a" fill-opacity="0.6" d="m-16.311896062463198,-22.451398828979272 l4.508497187473711,13.875727571288778 l4.508497187473714,-13.875727571288774 l-4.508497187473711,-13.875727571288778z"/>
<path fill="none" stroke="#f44" d="M -14.057647468726342 -15.513535043334883 A 7.2949016875157735 7.2949016875157735 0 0 0 -14.05764746872634 -29.389262614623657"/>
<path fill="none" stroke="#44f" d="M -9.549150281252627 -29.389262614623654 A 7.294901687515772 7.294901687515772 0 0 0 -9.54915028125263 -15.513535043334882"/>
<path fill="#46e" fill-opacity="0.6" d="m0.0,0.0 l-11.803398874989487,8.575671257690495 l-11.803398874989483,-8.575671257690495 l11.803398874989487,-8.575671257690495z"/>
<path fill="none" stroke="#f44" d="M -5.901699437494742 -4.287835628845247 A 7.294901687515774 7.294901687515774 0 0 0 -5.901699437494743 4.287835628845247"/>
<path fill="none" stroke="#44f" d="M -17.70509831248423 4.287835628845247 A 7.294901687515773 7.294901687515773 0 0 0 -17.705098312484225 -4.287835628845247"/>
<path fill="#3a7" fill-opacity="0.6" d="m-16.311896062463198,22.451398828979272 l4.508497187473711,-13.875727571288778 l4.508497187473714,13.875727571288774 l-4.508497187473711,13.875727571288778z"/>
<path fill="none" stroke="#f44" d="M -14.05764746872634 29.389262614623657 A 7.2949016875157735 7.2949016875157735 0 0 0 -14.057647468726342 15.513535043334883"/>
<path fill="none" stroke="#44f" d="M -9.54915028125263 15.513535043334882 A 7.294901687515772 7.294901687515772 0 0 0 -9.549150281252627 29.389262614623654"/>
<path fill="#e61" fill-opacity="0.6" d="m5.329070518200751e-15,-72.65425280053609 l-11.803398874989485,8.575671257690487 l-11.80339887498949,-8.575671257690502 l11.803398874989485,-8.575671257690487z"/>
<path fill="none" stroke="#f44" d="M -5.90169943749474 -76.94208842938133 A 7.294901687515771 7.294901687515771 0 0 0 -5.901699437494737 -68.36641717169084"/>
<path fill="none" stroke="#44f" d="M -17.705098312484225 -68.36641717169084 A 7.294901687515778 7.294901687515778 0 0 0 -17.70509831248423 -76.94208842938134"/>
<path fill="#e46" fill-opacity="0.6" d="m5.329070518200751e-15,72.65425280053609 l-11.803398874989485,-8.575671257690487 l-11.80339887498949,8.575671257690502 l11.803398874989485,8.575671257690487z"/>
<path fill="none" stroke="#f44" d="M -5.901699437494737 68.36641717169084 A 7.294901687515771 7.294901687515771 0 0 0 -5.90169943749474 76.94208842938133"/>
<path fill="none" stroke="#44f" d="M -17.70509831248423 76.94208842938134 A 7.294901687515778 7.294901687515778 0 0 0 -17.705098312484225 68.36641717169084"/>
<path fill="#9ee" fill-opacity="0.6" d="m-11.803398874989483,-36.32712640026804 l-4.508497187473711,-13.875727571288778 l11.803398874989487,-8.575671257690487 l4.508497187473711,13.875727571288778z"/>
<path fill="none" stroke="#f44" d="M -5.90169943749474 -40.614962029113286 A 7.2949016875157735 7.2949016875157735 0 0 0 -14.057647468726339 -43.26499018591243"/>
<path fill="none" stroke="#44f" d="M -10.410196624968451 -54.490689600402064 A 7.294901687515772 7.294901687515772 0 0 0 -2.2542485937368513 -51.84066144360292"/>
<path fill="#23f" fill-opacity="0.6" d="m-11.803398874989483,36.32712640026804 l-4.508497187473711,13.875727571288778 l11.803398874989487,8.575671257690487 l4.508497187473711,-13.875727571288778z"/>
<path fill="none" stroke="#f44" d="M -14.057647468726339 43.26499018591243 A 7.2949016875157735 7.2949016875157735 0 0 0 -5.90169943749474 40.614962029113286"/>
<path fill="none" stroke="#44f" d="M -2.2542485937368513 51.84066144360292 A 7.294901687515772 7.294901687515772 0 0 0 -10.410196624968451 54.490689600402064"/>
<path fill="#832" fill-opacity="0.6" d="m-11.80339887498948,-64.0785815428456 l-4.508497187473715,13.875727571288778 l11.803398874989487,-8.575671257690487 l4.508497187473715,-13.875727571288778z"/>
<path fill="none" stroke="#f44" d="M -14.057647468726337 -57.14071775720121 A 7.2949016875157735 7.2949016875157735 0 0 0 -5.901699437494736 -68.36641717169084"/>
<path fill="none" stroke="#44f" d="M -2.2542485937368495 -65.71638901489169 A 7.294901687515772 7.294901687515772 0 0 0 -10.410196624968451 -54.490689600402064"/>
<path fill="#479" fill-opacity="0.6" d="m-11.80339887498948,64.0785815428456 l-4.508497187473715,-13.875727571288778 l11.803398874989487,8.575671257690487 l4.508497187473715,13.875727571288778z"/>
<path fill="none" stroke="#f44" d="M -5.901699437494736 68.36641717169084 A 7.2949016875157735 7.2949016875157735 0 0 0 -14.057647468726337 57.14071775720121"/>
<path fill="none" stroke="#44f" d="M -10.410196624968451 54.490689600402064 A 7.294901687515772 7.294901687515772 0 0 0 -2.2542485937368495 65.71638901489169"/>
<path fill="#27a" fill-opacity="0.6" d="m0.0,-0.0 l4.508497187473713,-13.875727571288776 l-11.803398874989487,-8.575671257690493 l-4.508497187473713,13.875727571288776z"/>
<path fill="none" stroke="#f44" d="M 2.2542485937368566 -6.937863785644388 A 7.294901687515773 7.294901687515773 0 0 0 -5.901699437494743 -4.287835628845246"/>
<path fill="none" stroke="#44f" d="M -9.54915028125263 -15.51353504333488 A 7.2949016875157735 7.2949016875157735 0 0 0 -1.3932022500210297 -18.16356320013402"/>
<path fill="#ecb" fill-opacity="0.6" d="m0.0,0.0 l4.508497187473713,13.875727571288776 l-11.803398874989487,8.575671257690493 l-4.508497187473713,-13.875727571288776z"/>
<path fill="none" stroke="#f44" d="M -5.901699437494743 4.287835628845246 A 7.294901687515773 7.294901687515773 0 0 0 2.2542485937368566 6.937863785644388"/>
<path fill="none" stroke="#44f" d="M -1.3932022500210297 18.16356320013402 A 7.2949016875157735 7.2949016875157735 0 0 0 -9.54915028125263 15.51353504333488"/>
<path fill="#4a0" fill-opacity="0.6" d="m8.881784197001252e-16,-27.751455142577555 l4.508497187473712,13.87572757128878 l-11.803398874989487,-8.575671257690493 l-4.508497187473712,-13.87572757128878z"/>
<path fill="none" stroke="#f44" d="M -5.901699437494742 -32.0392907714228 A 7.294901687515774 7.294901687515774 0 0 0 2.254248593736857 -20.813591356933166"/>
<path fill="none" stroke="#44f" d="M -1.3932022500210297 -18.16356320013402 A 7.2949016875157735 7.2949016875157735 0 0 0 -9.54915028125263 -29.38926261462366"/>
<path fill="#330" fill-opacity="0.6" d="m8.881784197001252e-16,27.751455142577555 l4.508497187473712,-13.87572757128878 l-11.803398874989487,8.575671257690493 l-4.508497187473712,13.87572757128878z"/>
<path fill="none" stroke="#f44" d="M 2.254248593736857 20.813591356933166 A 7.294901687515774 7.294901687515774 0 0 0 -5.901699437494742 32.0392907714228"/>
<path fill="none" stroke="#44f" d="M -9.54915028125263 29.38926261462366 A 7.2949016875157735 7.2949016875157735 0 0 0 -1.3932022500210297 18.16356320013402"/>
<path fill="#1a9" fill-opacity="0.6" d="m5.329070518200751e-15,-72.65425280053609 l4.50849718747371,-13.875727571288778 l-11.803398874989488,-8.575671257690502 l-4.50849718747371,13.875727571288778z"/>
<path fill="none" stroke="#f44" d="M 2.25424859373686 -79.59211658618048 A 7.2949016875157735 7.2949016875157735 0 0 0 -5.901699437494739 -76.94208842938133"/>
<path fill="none" stroke="#44f" d="M -9.54915028125263 -88.16778784387097 A 7.294901687515777 7.294901687515777 0 0 0 -1.3932022500210293 -90.81781600067012"/>
<path fill="#241" fill-opacity="0.6" d="m5.329070518200751e-15,72.65425280053609 l4.50849718747371,13.875727571288778 l-11.803398874989488,8.575671257690502 l-4.50849718747371,-13.875727571288778z"/>
<path fill="none" stroke="#f44" d="M -5.901699437494739 76.94208842938133 A 7.2949016875157735 7.2949016875157735 0 0 0 2.25424859373686 79.59211658618048"/>
<path fill="none" stroke="#44f" d="M -1.3932022500210293 90.81781600067012 A 7.294901687515777 7.294901687515777 0 0 0 -9.54915028125263 88.16778784387097"/>
<path fill="#4f7" fill-opacity="0.6" d="m-11.803398874989483,-36.32712640026804 l11.803398874989483,8.575671257690487 l11.803398874989487,-8.575671257690495 l-11.803398874989483,-8.575671257690487z"/>
<path fill="none" stroke="#f44" d="M -5.901699437494742 -32.0392907714228 A 7.294901687515771 7.294901687515771 0 0 0 -5.901699437494739 -40.614962029113286"/>
<path fill="none" stroke="#44f" d="M 5.901699437494747 -40.61496202911329 A 7.294901687515774 7.294901687515774 0 0 0 5.901699437494745 -32.0392907714228"/>
<path fill="#1f4" fill-opacity="0.6" d="m-11.803398874989483,36.32712640026804 l11.803398874989483,-8.575671257690487 l11.803398874989487,8.575671257690495 l-11.803398874989483,8.575671257690487z"/>
<path fill="none" stroke="#f44" d="M -5.901699437494739 40.614962029113286 A 7.294901687515771 7.294901687515771 0 0 0 -5.901699437494742 32.0392907714228"/>
<path fill="none" stroke="#44f" d="M 5.901699437494745 32.0392907714228 A 7.294901687515774 7.294901687515774 0 0 0 5.901699437494747 40.61496202911329"/>
<path fill="#4d3" fill-opacity="0.6" d="m4.508497187473716,-58.77852522924731 l-4.5084971874737105,-13.875727571288778 l-4.508497187473712,13.875727571288778 l4.5084971874737105,13.875727571288778z"/>
<path fill="none" stroke="#f44" d="M 2.2542485937368606 -65.71638901489169 A 7.2949016875157735 7.2949016875157735 0 0 0 2.2542485937368597 -51.84066144360292"/>
<path fill="none" stroke="#44f" d="M -2.2542485937368517 -51.84066144360292 A 7.2949016875157735 7.2949016875157735 0 0 0 -2.254248593736851 -65.71638901489169"/>
<path fill="#d" fill-opacity="0.6" d="m4.508497187473716,58.77852522924731 l-4.5084971874737105,13.875727571288778 l-4.508497187473712,-13.875727571288778 l4.5084971874737105,-13.875727571288778z"/>
<path fill="none" stroke="#f44" d="M 2.2542485937368597 51.84066144360292 A 7.2949016875157735 7.2949016875157735 0 0 0 2.2542485937368606 65.71638901489169"/>
<path fill="none" stroke="#44f" d="M -2.254248593736851 65.71638901489169 A 7.2949016875157735 7.2949016875157735 0 0 0 -2.2542485937368517 51.84066144360292"/>
<path fill="#c3d" fill-opacity="0.6" d="m16.3118960624632,-95.10565162951536 l-11.803398874989487,8.575671257690502 l-11.803398874989488,-8.575671257690502 l11.803398874989487,-8.575671257690502z"/>
<path fill="none" stroke="#f44" d="M 10.410196624968457 -99.39348725836061 A 7.294901687515776 7.294901687515776 0 0 0 10.410196624968458 -90.81781600067012"/>
<path fill="none" stroke="#44f" d="M -1.3932022500210293 -90.81781600067012 A 7.294901687515777 7.294901687515777 0 0 0 -1.3932022500210302 -99.39348725836061"/>
<path fill="#d82" fill-opacity="0.6" d="m16.3118960624632,95.10565162951536 l-11.803398874989487,-8.575671257690502 l-11.803398874989488,8.575671257690502 l11.803398874989487,8.575671257690502z"/>
<path fill="none" stroke="#f44" d="M 10.410196624968458 90.81781600067012 A 7.294901687515776 7.294901687515776 0 0 0 10.410196624968457 99.39348725836061"/>
<path fill="none" stroke="#44f" d="M -1.3932022500210302 99.39348725836061 A 7.294901687515777 7.294901687515777 0 0 0 -1.3932022500210293 90.81781600067012"/>
<path fill="#e3f" fill-opacity="0.6" d="m4.508497187473713,-13.875727571288776 l11.803398874989485,-8.575671257690493 l-4.50849718747371,-13.875727571288781 l-11.803398874989485,8.575671257690493z"/>
<path fill="none" stroke="#f44" d="M 10.410196624968457 -18.16356320013402 A 7.294901687515772 7.294901687515772 0 0 0 2.2542485937368584 -20.813591356933166"/>
<path fill="none" stroke="#44f" d="M 5.901699437494746 -32.0392907714228 A 7.294901687515775 7.294901687515775 0 0 0 14.057647468726344 -29.38926261462366"/>
<path fill="#95e" fill-opacity="0.6" d="m4.508497187473713,13.875727571288776 l11.803398874989485,8.575671257690493 l-4.50849718747371,13.875727571288781 l-11.803398874989485,-8.575671257690493z"/>
<path fill="none" stroke="#f44" d="M 2.2542485937368584 20.813591356933166 A 7.294901687515772 7.294901687515772 0 0 0 10.410196624968457 18.16356320013402"/>
<path fill="none" stroke="#44f" d="M 14.057647468726344 29.38926261462366 A 7.294901687515775 7.294901687515775 0 0 0 5.901699437494746 32.0392907714228"/>
<path fill="#288" fill-opacity="0.6" d="m4.508497187473715,-86.52998037182486 l11.803398874989487,-8.575671257690502 l-4.508497187473713,13.875727571288792 l-11.803398874989487,8.575671257690502z"/>
<path fill="none" stroke="#f44" d="M 2.2542485937368584 -79.59211658618047 A 7.294901687515776 7.294901687515776 0 0 0 10.410196624968458 -90.81781600067012"/>
<path fill="none" stroke="#44f" d="M 14.057647468726344 -88.16778784387097 A 7.294901687515781 7.294901687515781 0 0 0 5.901699437494745 -76.94208842938133"/>
<path fill="#7df" fill-opacity="0.6" d="m4.508497187473715,86.52998037182486 l11.803398874989487,8.575671257690502 l-4.508497187473713,-13.875727571288792 l-11.803398874989487,-8.575671257690502z"/>
<path fill="none" stroke="#f44" d="M 10.410196624968458 90.81781600067012 A 7.294901687515776 7.294901687515776 0 0 0 2.2542485937368584 79.59211658618047"/>
<path fill="none" stroke="#44f" d="M 5.901699437494745 76.94208842938133 A 7.294901687515781 7.294901687515781 0 0 0 14.057647468726344 88.16778784387097"/>
<path fill="#bef" fill-opacity="0.6" d="m0.0,-0.0 l14.589803375031547,0.0 l4.508497187473708,-13.875727571288774 l-14.589803375031547,-0.0z"/>
<path fill="none" stroke="#f44" d="M 7.2949016875157735 -0.0 A 7.2949016875157735 7.2949016875157735 0 0 0 2.254248593736854 -6.937863785644387"/>
<path fill="none" stroke="#44f" d="M 11.803398874989481 -13.875727571288774 A 7.294901687515772 7.294901687515772 0 0 0 16.8440519687684 -6.937863785644387"/>
<path fill="#edc" fill-opacity="0.6" d="m0.0,0.0 l14.589803375031547,0.0 l4.508497187473708,13.875727571288774 l-14.589803375031547,-0.0z"/>
<path fill="none" stroke="#f44" d="M 2.254248593736854 6.937863785644387 A 7.2949016875157735 7.2949016875157735 0 0 0 7.2949016875157735 0.0"/>
<path fill="none" stroke="#44f" d="M 16.8440519687684 6.937863785644387 A 7.294901687515772 7.294901687515772 0 0 0 11.803398874989481 13.875727571288774"/>
<path fill="#be6" fill-opacity="0.6" d="m8.881784197001252e-16,-44.90279765795854 l4.508497187473715,-13.87572757128877 l14.589803375031547,-1.4210854715202004e-14 l-4.508497187473715,13.87572757128877z"/>
<path fill="none" stroke="#f44" d="M 7.2949016875157735 -44.902797657958544 A 7.294901687515772 7.294901687515772 0 0 0 2.2542485937368584 -51.840661443602926"/>
<path fill="none" stroke="#44f" d="M 11.803398874989488 -58.778525229247315 A 7.2949016875157735 7.2949016875157735 0 0 0 16.844051968768404 -51.84066144360294"/>
<path fill="#8eb" fill-opacity="0.6" d="m8.881784197001252e-16,44.90279765795854 l4.508497187473715,13.87572757128877 l14.589803375031547,1.4210854715202004e-14 l-4.508497187473715,-13.87572757128877z"/>
<path fill="none" stroke="#f44" d="M 2.2542485937368584 51.840661443602926 A 7.294901687515772 7.294901687515772 0 0 0 7.2949016875157735 44.902797657958544"/>
<path fill="none" stroke="#44f" d="M 16.844051968768404 51.84066144360294 A 7.2949016875157735 7.2949016875157735 0 0 0 11.803398874989488 58.778525229247315"/>
<path fill="#4fe" fill-opacity="0.6" d="m5.329070518200751e-15,-72.65425280053609 l14.589803375031543,0.0 l4.508497187473713,13.875727571288763 l-14.589803375031543,-0.0z"/>
<path fill="none" stroke="#f44" d="M 2.254248593736862 -65.7163890148917 A 7.294901687515772 7.294901687515772 0 0 0 7.294901687515777 -72.65425280053609"/>
<path fill="none" stroke="#44f" d="M 16.844051968768404 -65.7163890148917 A 7.294901687515767 7.294901687515767 0 0 0 11.80339887498949 -58.77852522924732"/>
<path fill="#c10" fill-opacity="0.6" d="m5.329070518200751e-15,72.65425280053609 l14.589803375031543,0.0 l4.508497187473713,-13.875727571288763 l-14.589803375031543,-0.0z"/>
<path fill="none" stroke="#f44" d="M 7.294901687515777 72.65425280053609 A 7.294901687515772 7.294901687515772 0 0 0 2.254248593736862 65.7163890148917"/>
<path fill="none" stroke="#44f" d="M 11.80339887498949 58.77852522924732 A 7.294901687515767 7.294901687515767 0 0 0 16.844051968768404 65.7163890148917"/>
<path fill="#873" fill-opacity="0.6" d="m14.589803375031549,-72.65425280053609 l-14.589803375031543,0.0 l11.803398874989483,-8.575671257690487 l14.589803375031543,-0.0z"/>
<path fill="none" stroke="#f44" d="M 20.491502812526292 -76.94208842938133 A 7.294901687515772 7.294901687515772 0 0 0 7.294901687515777 -72.65425280053609"/>
<path fill="none" stroke="#44f" d="M 5.901699437494747 -76.94208842938133 A 7.294901687515771 7.294901687515771 0 0 0 19.098300562505262 -81.22992405822657"/>
<path fill="#c9a" fill-opacity="0.6" d="m14.589803375031549,-44.902797657958544 l11.803398874989478,8.575671257690502 l-14.589803375031538,-7.105427357601002e-15 l-11.803398874989478,-8.575671257690502z"/>
<path fill="none" stroke="#f44" d="M 7.29490168751578 -44.902797657958544 A 7.294901687515773 7.294901687515773 0 0 0 20.49150281252629 -40.61496202911329"/>
<path fill="none" stroke="#44f" d="M 19.09830056250526 -36.32712640026804 A 7.294901687515769 7.294901687515769 0 0 0 5.90169943749475 -40.6149620291133"/>
<path fill="#ba1" fill-opacity="0.6" d="m14.589803375031549,44.902797657958544 l11.803398874989478,-8.575671257690502 l-14.589803375031538,7.105427357601002e-15 l-11.803398874989478,8.575671257690502z"/>
<path fill="none" stroke="#f44" d="M 20.49150281252629 40.61496202911329 A 7.294901687515773 7.294901687515773 0 0 0 7.29490168751578 44.902797657958544"/>
<path fill="none" stroke="#44f" d="M 5.90169943749475 40.6149620291133 A 7.294901687515769 7.294901687515769 0 0 0 19.09830056250526 36.32712640026804"/>
<path fill="#29" fill-opacity="0.6" d="m14.589803375031549,72.65425280053609 l-14.589803375031543,0.0 l11.803398874989483,8.575671257690487 l14.589803375031543,-0.0z"/>
<path fill="none" stroke="#f44" d="M 7.294901687515777 72.65425280053609 A 7.294901687515772 7.294901687515772 0 0 0 20.491502812526292 76.94208842938133"/>
<path fill="none" stroke="#44f" d="M 19.098300562505262 81.22992405822657 A 7.294901687515771 7.294901687515771 0 0 0 5.901699437494747 76.94208842938133"/>
<path fill="#136" fill-opacity="0.6" d="m16.311896062463198,-22.45139882897927 l-11.803398874989485,8.575671257690493 l14.589803375031542,1.7763568394002505e-15 l11.803398874989485,-8.575671257690493z"/>
<path fill="none" stroke="#f44" d="M 10.410196624968457 -18.16356320013402 A 7.294901687515772 7.294901687515772 0 0 0 23.60679774997897 -22.451398828979265"/>
<path fill="none" stroke="#44f" d="M 25.0 -18.16356320013402 A 7.294901687515771 7.294901687515771 0 0 0 11.803398874989483 -13.875727571288774"/>
<path fill="#54a" fill-opacity="0.6" d="m16.311896062463198,22.45139882897927 l-11.803398874989485,-8.575671257690493 l14.589803375031542,-1.7763568394002505e-15 l11.803398874989485,8.575671257690493z"/>
<path fill="none" stroke="#f44" d="M 23.60679774997897 22.451398828979265 A 7.294901687515772 7.294901687515772 0 0 0 10.410196624968457 18.16356320013402"/>
<path fill="none" stroke="#44f" d="M 11.803398874989483 13.875727571288774 A 7.294901687515771 7.294901687515771 0 0 0 25.0 18.16356320013402"/>
<path fill="#5ad" fill-opacity="0.6" d="m30.901699437494738,-22.451398828979265 l-14.58980337503154,-3.552713678800501e-15 l-4.50849718747371,-13.875727571288781 l14.58980337503154,3.552713678800501e-15z"/>
<path fill="none" stroke="#f44" d="M 28.64745084375788 -29.389262614623654 A 7.29490168751577 7.29490168751577 0 0 0 23.606797749978966 -22.451398828979265"/>
<path fill="none" stroke="#44f" d="M 14.057647468726344 -29.38926261462366 A 7.294901687515775 7.294901687515775 0 0 0 19.09830056250526 -36.32712640026804"/>
<path fill="#15b" fill-opacity="0.6" d="m30.901699437494738,22.451398828979265 l-14.58980337503154,3.552713678800501e-15 l-4.50849718747371,13.875727571288781 l14.58980337503154,-3.552713678800501e-15z"/>
<path fill="none" stroke="#f44" d="M 23.606797749978966 22.451398828979265 A 7.29490168751577 7.29490168751577 0 0 0 28.64745084375788 29.389262614623654"/>
<path fill="none" stroke="#44f" d="M 19.09830056250526 36.32712640026804 A 7.294901687515775 7.294901687515775 0 0 0 14.057647468726344 29.38926261462366"/>
<path fill="#dab" fill-opacity="0.6" d="m30.90169943749475,-95.10565162951536 l-4.508497187473715,13.875727571288778 l-14.589803375031545,1.4210854715202004e-14 l4.508497187473715,-13.875727571288778z"/>
<path fill="none" stroke="#f44" d="M 23.606797749978977 -95.10565162951536 A 7.2949016875157735 7.2949016875157735 0 0 0 28.64745084375789 -88.16778784387097"/>
<path fill="none" stroke="#44f" d="M 19.098300562505262 -81.22992405822657 A 7.294901687515773 7.294901687515773 0 0 0 14.057647468726348 -88.16778784387097"/>
<path fill="#e5b" fill-opacity="0.6" d="m30.90169943749475,95.10565162951536 l-4.508497187473715,-13.875727571288778 l-14.589803375031545,-1.4210854715202004e-14 l4.508497187473715,13.875727571288778z"/>
<path fill="none" stroke="#f44" d="M 28.64745084375789 88.16778784387097 A 7.2949016875157735 7.2949016875157735 0 0 0 23.606797749978977 95.10565162951536"/>
<path fill="none" stroke="#44f" d="M 14.057647468726348 88.16778784387097 A 7.294901687515773 7.294901687515773 0 0 0 19.098300562505262 81.22992405822657"/>
<path fill="#430" fill-opacity="0.6" d="m26.393202250021034,-81.22992405822659 l4.508497187473715,13.875727571288778 l-11.803398874989487,8.575671257690487 l-4.508497187473715,-13.875727571288778z"/>
<path fill="none" stroke="#f44" d="M 20.491502812526292 -76.94208842938134 A 7.2949016875157735 7.2949016875157735 0 0 0 28.64745084375789 -74.2920602725822"/>
<path fill="none" stroke="#44f" d="M 25.000000000000007 -63.066360858092565 A 7.294901687515772 7.294901687515772 0 0 0 16.844051968768404 -65.71638901489172"/>
<path fill="#f8d" fill-opacity="0.6" d="m26.393202250021027,-36.32712640026804 l4.508497187473715,-13.875727571288785 l-11.80339887498948,-8.575671257690495 l-4.508497187473715,13.875727571288785z"/>
<path fill="none" stroke="#f44" d="M 28.647450843757884 -43.26499018591244 A 7.294901687515777 7.294901687515777 0 0 0 20.491502812526285 -40.614962029113286"/>
<path fill="none" stroke="#44f" d="M 16.844051968768404 -51.840661443602926 A 7.294901687515772 7.294901687515772 0 0 0 25.0 -54.49068960040208"/>
<path fill="#5fe" fill-opacity="0.6" d="m26.393202250021034,-8.575671257690493 l-11.803398874989487,8.575671257690493 l4.508497187473708,-13.875727571288774 l11.803398874989487,-8.575671257690493z"/>
<path fill="none" stroke="#f44" d="M 28.647450843757888 -15.51353504333488 A 7.2949016875157735 7.2949016875157735 0 0 0 20.491502812526292 -4.287835628845246"/>
<path fill="none" stroke="#44f" d="M 16.8440519687684 -6.937863785644387 A 7.294901687515772 7.294901687515772 0 0 0 25.0 -18.16356320013402"/>
<path fill="#dac" fill-opacity="0.6" d="m26.393202250021034,8.575671257690493 l-11.803398874989487,-8.575671257690493 l4.508497187473708,13.875727571288774 l11.803398874989487,8.575671257690493z"/>
<path fill="none" stroke="#f44" d="M 20.491502812526292 4.287835628845246 A 7.2949016875157735 7.2949016875157735 0 0 0 28.647450843757888 15.51353504333488"/>
<path fill="none" stroke="#44f" d="M 25.0 18.16356320013402 A 7.294901687515772 7.294901687515772 0 0 0 16.8440519687684 6.937863785644387"/>
<path fill="#5e9" fill-opacity="0.6" d="m26.393202250021027,36.32712640026804 l4.508497187473715,13.875727571288785 l-11.80339887498948,8.575671257690495 l-4.508497187473715,-13.875727571288785z"/>
<path fill="none" stroke="#f44" d="M 20.491502812526285 40.614962029113286 A 7.294901687515777 7.294901687515777 0 0 0 28.647450843757884 43.26499018591244"/>
<path fill="none" stroke="#44f" d="M 25.0 54.49068960040208 A 7.294901687515772 7.294901687515772 0 0 0 16.844051968768404 51.840661443602926"/>
<path fill="#c62" fill-opacity="0.6" d="m26.393202250021034,81.22992405822659 l4.508497187473715,-13.875727571288778 l-11.803398874989487,-8.575671257690487 l-4.508497187473715,13.875727571288778z"/>
<path fill="none" stroke="#f44" d="M 28.64745084375789 74.2920602725822 A 7.2949016875157735 7.2949016875157735 0 0 0 20.491502812526292 76.94208842938134"/>
<path fill="none" stroke="#44f" d="M 16.844051968768404 65.71638901489172 A 7.294901687515772 7.294901687515772 0 0 0 25.000000000000007 63.066360858092565"/>
<path fill="#855" fill-opacity="0.6" d="m14.589803375031547,0.0 l11.803398874989487,8.575671257690493 l11.80339887498949,-8.575671257690493 l-11.803398874989487,-8.575671257690493z"/>
<path fill="none" stroke="#f44" d="M 20.491502812526292 4.287835628845246 A 7.2949016875157735 7.2949016875157735 0 0 0 20.491502812526292 -4.287835628845246"/>
<path fill="none" stroke="#44f" d="M 32.29490168751578 -4.287835628845246 A 7.294901687515775 7.294901687515775 0 0 0 32.294901687515775 4.287835628845246"/>
<path fill="#1f0" fill-opacity="0.6" d="m42.705098312484225,-58.778525229247315 l-11.803398874989476,-8.575671257690495 l-11.803398874989487,8.575671257690487 l11.803398874989476,8.575671257690495z"/>
<path fill="none" stroke="#f44" d="M 36.80339887498948 -63.066360858092565 A 7.294901687515769 7.294901687515769 0 0 0 36.80339887498948 -54.49068960040207"/>
<path fill="none" stroke="#44f" d="M 25.0 -54.49068960040208 A 7.294901687515772 7.294901687515772 0 0 0 25.000000000000007 -63.066360858092565"/>
<path fill="#28e" fill-opacity="0.6" d="m42.705098312484225,58.778525229247315 l-11.803398874989476,8.575671257690495 l-11.803398874989487,-8.575671257690487 l11.803398874989476,-8.575671257690495z"/>
<path fill="none" stroke="#f44" d="M 36.80339887498948 54.49068960040207 A 7.294901687515769 7.294901687515769 0 0 0 36.80339887498948 63.066360858092565"/>
<path fill="none" stroke="#44f" d="M 25.000000000000007 63.066360858092565 A 7.294901687515772 7.294901687515772 0 0 0 25.0 54.49068960040208"/>
<path fill="#8c9" fill-opacity="0.6" d="m30.90169943749474,-50.20285397155683 l11.803398874989483,-8.575671257690487 l-4.508497187473715,13.87572757128877 l-11.803398874989483,8.575671257690487z"/>
<path fill="none" stroke="#f44" d="M 28.647450843757884 -43.26499018591244 A 7.294901687515771 7.294901687515771 0 0 0 36.80339887498948 -54.49068960040207"/>
<path fill="none" stroke="#44f" d="M 40.450849718747364 -51.840661443602926 A 7.294901687515772 7.294901687515772 0 0 0 32.29490168751577 -40.6149620291133"/>
<path fill="#44b" fill-opacity="0.6" d="m30.901699437494738,-22.451398828979265 l11.803398874989487,-8.575671257690495 l-4.508497187473715,-13.875727571288785 l-11.803398874989487,8.575671257690495z"/>
<path fill="none" stroke="#f44" d="M 36.80339887498948 -26.739234457824512 A 7.294901687515774 7.294901687515774 0 0 0 28.64745084375788 -29.389262614623657"/>
<path fill="none" stroke="#44f" d="M 32.29490168751577 -40.6149620291133 A 7.294901687515777 7.294901687515777 0 0 0 40.450849718747364 -37.96493387231415"/>
<path fill="#214" fill-opacity="0.6" d="m30.901699437494738,22.451398828979265 l11.803398874989487,8.575671257690495 l-4.508497187473715,13.875727571288785 l-11.803398874989487,-8.575671257690495z"/>
<path fill="none" stroke="#f44" d="M 28.64745084375788 29.389262614623657 A 7.294901687515774 7.294901687515774 0 0 0 36.80339887498948 26.739234457824512"/>
<path fill="none" stroke="#44f" d="M 40.450849718747364 37.96493387231415 A 7.294901687515777 7.294901687515777 0 0 0 32.29490168751577 40.6149620291133"/>
<path fill="#2a3" fill-opacity="0.6" d="m30.90169943749474,50.20285397155683 l11.803398874989483,8.575671257690487 l-4.508497187473715,-13.87572757128877 l-11.803398874989483,-8.575671257690487z"/>
<path fill="none" stroke="#f44" d="M 36.80339887498948 54.49068960040207 A 7.294901687515771 7.294901687515771 0 0 0 28.647450843757884 43.26499018591244"/>
<path fill="none" stroke="#44f" d="M 32.29490168751577 40.6149620291133 A 7.294901687515772 7.294901687515772 0 0 0 40.450849718747364 51.840661443602926"/>
<path fill="#155" fill-opacity="0.6" d="m30.901699437494738,-22.451398828979265 l-4.508497187473704,13.875727571288772 l11.80339887498949,8.575671257690493 l4.508497187473704,-13.875727571288772z"/>
<path fill="none" stroke="#f44" d="M 28.647450843757888 -15.51353504333488 A 7.294901687515769 7.294901687515769 0 0 0 36.80339887498948 -18.163563200134018"/>
<path fill="none" stroke="#44f" d="M 40.45084971874738 -6.937863785644386 A 7.294901687515775 7.294901687515775 0 0 0 32.294901687515775 -4.287835628845246"/>
<path fill="#f2" fill-opacity="0.6" d="m30.901699437494738,22.451398828979265 l-4.508497187473704,-13.875727571288772 l11.80339887498949,-8.575671257690493 l4.508497187473704,13.875727571288772z"/>
<path fill="none" stroke="#f44" d="M 36.80339887498948 18.163563200134018 A 7.294901687515769 7.294901687515769 0 0 0 28.647450843757888 15.51353504333488"/>
<path fill="none" stroke="#44f" d="M 32.294901687515775 4.287835628845246 A 7.294901687515775 7.294901687515775 0 0 0 40.45084971874738 6.937863785644386"/>
<path fill="#d13" fill-opacity="0.6" d="m30.90169943749475,-95.10565162951536 l-4.508497187473715,13.875727571288778 l11.803398874989483,8.575671257690502 l4.508497187473715,-13.875727571288778z"/>
<path fill="none" stroke="#f44" d="M 28.64745084375789 -88.16778784387097 A 7.2949016875157735 7.2949016875157735 0 0 0 36.80339887498949 -90.81781600067012"/>
<path fill="none" stroke="#44f" d="M 40.45084971874738 -79.59211658618048 A 7.294901687515775 7.294901687515775 0 0 0 32.294901687515775 -76.94208842938133"/>
<path fill="#3db" fill-opacity="0.6" d="m30.90169943749475,-67.35419648693781 l11.803398874989476,8.575671257690495 l-4.508497187473708,-13.87572757128877 l-11.803398874989476,-8.575671257690495z"/>
<path fill="none" stroke="#f44" d="M 36.80339887498948 -63.066360858092565 A 7.294901687515769 7.294901687515769 0 0 0 28.647450843757895 -74.29206027258219"/>
<path fill="none" stroke="#44f" d="M 32.294901687515775 -76.94208842938133 A 7.29490168751577 7.29490168751577 0 0 0 40.45084971874737 -65.7163890148917"/>
<path fill="#b29" fill-opacity="0.6" d="m30.90169943749475,67.35419648693781 l11.803398874989476,-8.575671257690495 l-4.508497187473708,13.87572757128877 l-11.803398874989476,8.575671257690495z"/>
<path fill="none" stroke="#f44" d="M 28.647450843757895 74.29206027258219 A 7.294901687515769 7.294901687515769 0 0 0 36.80339887498948 63.066360858092565"/>
<path fill="none" stroke="#44f" d="M 40.45084971874737 65.7163890148917 A 7.29490168751577 7.29490168751577 0 0 0 32.294901687515775 76.94208842938133"/>
<path fill="#bd4" fill-opacity="0.6" d="m30.90169943749475,95.10565162951536 l-4.508497187473715,-13.875727571288778 l11.803398874989483,-8.575671257690502 l4.508497187473715,13.875727571288778z"/>
<path fill="none" stroke="#f44" d="M 36.80339887498949 90.81781600067012 A 7.2949016875157735 7.2949016875157735 0 0 0 28.64745084375789 88.16778784387097"/>
<path fill="none" stroke="#44f" d="M 32.294901687515775 76.94208842938133 A 7.294901687515775 7.294901687515775 0 0 0 40.45084971874738 79.59211658618048"/>
<path fill="#aba" fill-opacity="0.6" d="m47.21359549995794,-44.902797657958544 l-4.508497187473715,13.875727571288785 l-4.508497187473715,-13.875727571288785 l4.508497187473715,-13.875727571288785z"/>
<path fill="none" stroke="#f44" d="M 44.959346906221086 -51.84066144360294 A 7.294901687515777 7.294901687515777 0 0 0 44.959346906221086 -37.96493387231415"/>
<path fill="none" stroke="#44f" d="M 40.450849718747364 -37.96493387231415 A 7.294901687515777 7.294901687515777 0 0 0 40.450849718747364 -51.84066144360294"/>
<path fill="#e96" fill-opacity="0.6" d="m30.901699437494738,-22.451398828979265 l11.803398874989487,-8.575671257690495 l11.80339887498949,8.575671257690495 l-11.803398874989487,8.575671257690495z"/>
<path fill="none" stroke="#f44" d="M 36.80339887498948 -18.163563200134018 A 7.294901687515774 7.294901687515774 0 0 0 36.80339887498948 -26.739234457824512"/>
<path fill="none" stroke="#44f" d="M 48.606797749978966 -26.739234457824512 A 7.294901687515775 7.294901687515775 0 0 0 48.606797749978966 -18.163563200134018"/>
<path fill="#5d8" fill-opacity="0.6" d="m30.901699437494738,22.451398828979265 l11.803398874989487,8.575671257690495 l11.80339887498949,-8.575671257690495 l-11.803398874989487,-8.575671257690495z"/>
<path fill="none" stroke="#f44" d="M 36.80339887498948 26.739234457824512 A 7.294901687515774 7.294901687515774 0 0 0 36.80339887498948 18.163563200134018"/>
<path fill="none" stroke="#44f" d="M 48.606797749978966 18.163563200134018 A 7.294901687515775 7.294901687515775 0 0 0 48.606797749978966 26.739234457824512"/>
<path fill="#da2" fill-opacity="0.6" d="m47.21359549995794,44.902797657958544 l-4.508497187473715,-13.875727571288785 l-4.508497187473715,13.875727571288785 l4.508497187473715,13.875727571288785z"/>
<path fill="none" stroke="#f44" d="M 44.959346906221086 37.96493387231415 A 7.294901687515777 7.294901687515777 0 0 0 44.959346906221086 51.84066144360294"/>
<path fill="none" stroke="#44f" d="M 40.450849718747364 51.84066144360294 A 7.294901687515777 7.294901687515777 0 0 0 40.450849718747364 37.96493387231415"/>
<path fill="#2bb" fill-opacity="0.6" d="m47.21359549995795,-72.65425280053609 l-4.508497187473715,-13.875727571288778 l-4.508497187473715,13.875727571288778 l4.508497187473715,13.875727571288778z"/>
<path fill="none" stroke="#f44" d="M 44.959346906221086 -79.59211658618048 A 7.2949016875157735 7.2949016875157735 0 0 0 44.959346906221086 -65.71638901489169"/>
<path fill="none" stroke="#44f" d="M 40.45084971874738 -65.71638901489169 A 7.2949016875157735 7.2949016875157735 0 0 0 40.45084971874738 -79.59211658618048"/>
<path fill="#612" fill-opacity="0.6" d="m47.21359549995795,72.65425280053609 l-4.508497187473715,13.875727571288778 l-4.508497187473715,-13.875727571288778 l4.508497187473715,-13.875727571288778z"/>
<path fill="none" stroke="#f44" d="M 44.959346906221086 65.71638901489169 A 7.2949016875157735 7.2949016875157735 0 0 0 44.959346906221086 79.59211658618048"/>
<path fill="none" stroke="#44f" d="M 40.45084971874738 79.59211658618048 A 7.2949016875157735 7.2949016875157735 0 0 0 40.45084971874738 65.71638901489169"/>
<path fill="#d0" fill-opacity="0.6" d="m47.21359549995795,0.0 l-4.508497187473722,13.875727571288774 l-4.508497187473701,-13.875727571288774 l4.508497187473722,-13.875727571288774z"/>
<path fill="none" stroke="#f44" d="M 44.9593469062211 -6.937863785644387 A 7.2949016875157735 7.2949016875157735 0 0 0 44.959346906221086 6.937863785644387"/>
<path fill="none" stroke="#44f" d="M 40.45084971874738 6.937863785644387 A 7.29490168751577 7.29490168751577 0 0 0 40.450849718747385 -6.937863785644387"/>
<path fill="#d9b" fill-opacity="0.6" d="m42.70509831248423,-86.52998037182486 l4.508497187473715,13.875727571288778 l14.589803375031543,0.0 l-4.508497187473715,-13.875727571288778z"/>
<path fill="none" stroke="#f44" d="M 44.959346906221086 -79.59211658618048 A 7.2949016875157735 7.2949016875157735 0 0 0 50.0 -86.52998037182486"/>
<path fill="none" stroke="#44f" d="M 59.549150281252636 -79.59211658618048 A 7.294901687515772 7.294901687515772 0 0 0 54.50849718747372 -72.65425280053609"/>
<path fill="#c28" fill-opacity="0.6" d="m42.705098312484225,-58.778525229247315 l4.508497187473722,-13.87572757128877 l14.589803375031543,0.0 l-4.508497187473722,13.87572757128877z"/>
<path fill="none" stroke="#f44" d="M 50.0 -58.778525229247315 A 7.294901687515772 7.294901687515772 0 0 0 44.959346906221086 -65.7163890148917"/>
<path fill="none" stroke="#44f" d="M 54.50849718747372 -72.65425280053609 A 7.294901687515772 7.294901687515772 0 0 0 59.54915028125263 -65.7163890148917"/>
<path fill="#4e2" fill-opacity="0.6" d="m42.705098312484225,-58.778525229247315 l4.508497187473715,13.87572757128877 l14.58980337503155,0.0 l-4.508497187473715,-13.87572757128877z"/>
<path fill="none" stroke="#f44" d="M 44.959346906221086 -51.840661443602926 A 7.294901687515772 7.294901687515772 0 0 0 50.0 -58.778525229247315"/>
<path fill="none" stroke="#44f" d="M 59.549150281252636 -51.840661443602926 A 7.294901687515775 7.294901687515775 0 0 0 54.508497187473715 -44.902797657958544"/>
<path fill="#c34" fill-opacity="0.6" d="m42.705098312484225,-31.02707008666976 l14.58980337503155,0.0 l4.508497187473715,-13.875727571288785 l-14.58980337503155,-0.0z"/>
<path fill="none" stroke="#f44" d="M 50.0 -31.02707008666976 A 7.294901687515775 7.294901687515775 0 0 0 44.959346906221086 -37.96493387231415"/>
<path fill="none" stroke="#44f" d="M 54.508497187473715 -44.902797657958544 A 7.294901687515777 7.294901687515777 0 0 0 59.549150281252636 -37.96493387231415"/>
<path fill="#5de" fill-opacity="0.6" d="m42.705098312484225,-13.875727571288774 l14.58980337503155,0.0 l4.508497187473715,13.875727571288774 l-14.58980337503155,-0.0z"/>
<path fill="none" stroke="#f44" d="M 44.959346906221086 -6.937863785644387 A 7.294901687515775 7.294901687515775 0 0 0 50.0 -13.875727571288774"/>
<path fill="none" stroke="#44f" d="M 59.549150281252636 -6.937863785644387 A 7.294901687515772 7.294901687515772 0 0 0 54.508497187473715 0.0"/>
<path fill="#cbc" fill-opacity="0.6" d="m42.705098312484225,13.875727571288774 l14.58980337503155,0.0 l4.508497187473715,-13.875727571288774 l-14.58980337503155,-0.0z"/>
<path fill="none" stroke="#f44" d="M 50.0 13.875727571288774 A 7.294901687515775 7.294901687515775 0 0 0 44.959346906221086 6.937863785644387"/>
<path fill="none" stroke="#44f" d="M 54.508497187473715 0.0 A 7.294901687515772 7.294901687515772 0 0 0 59.549150281252636 6.937863785644387"/>
<path fill="#8b3" fill-opacity="0.6" d="m42.705098312484225,31.02707008666976 l14.58980337503155,0.0 l4.508497187473715,13.875727571288785 l-14.58980337503155,-0.0z"/>
<path fill="none" stroke="#f44" d="M 44.959346906221086 37.96493387231415 A 7.294901687515775 7.294901687515775 0 0 0 50.0 31.02707008666976"/>
<path fill="none" stroke="#44f" d="M 59.549150281252636 37.96493387231415 A 7.294901687515777 7.294901687515777 0 0 0 54.508497187473715 44.902797657958544"/>
<path fill="#4c" fill-opacity="0.6" d="m42.705098312484225,58.778525229247315 l4.508497187473715,-13.87572757128877 l14.58980337503155,0.0 l-4.508497187473715,13.87572757128877z"/>
<path fill="none" stroke="#f44" d="M 50.0 58.778525229247315 A 7.294901687515772 7.294901687515772 0 0 0 44.959346906221086 51.840661443602926"/>
<path fill="none" stroke="#44f" d="M 54.508497187473715 44.902797657958544 A 7.294901687515775 7.294901687515775 0 0 0 59.549150281252636 51.840661443602926"/>
<path fill="#dba" fill-opacity="0.6" d="m42.705098312484225,58.778525229247315 l4.508497187473722,13.87572757128877 l14.589803375031543,0.0 l-4.508497187473722,-13.87572757128877z"/>
<path fill="none" stroke="#f44" d="M 44.959346906221086 65.7163890148917 A 7.294901687515772 7.294901687515772 0 0 0 50.0 58.778525229247315"/>
<path fill="none" stroke="#44f" d="M 59.54915028125263 65.7163890148917 A 7.294901687515772 7.294901687515772 0 0 0 54.50849718747372 72.65425280053609"/>
<path fill="#7ce" fill-opacity="0.6" d="m42.70509831248423,86.52998037182486 l4.508497187473715,-13.875727571288778 l14.589803375031543,0.0 l-4.508497187473715,13.875727571288778z"/>
<path fill="none" stroke="#f44" d="M 50.0 86.52998037182486 A 7.2949016875157735 7.2949016875157735 0 0 0 44.959346906221086 79.59211658618048"/>
<path fill="none" stroke="#44f" d="M 54.50849718747372 72.65425280053609 A 7.294901687515772 7.294901687515772 0 0 0 59.549150281252636 79.59211658618048"/>
<path fill="#2cd" fill-opacity="0.6" d="m57.294901687515775,-31.02707008666976 l-14.58980337503155,0.0 l11.80339887498949,8.575671257690495 l14.58980337503155,-0.0z"/>
<path fill="none" stroke="#f44" d="M 50.0 -31.02707008666976 A 7.294901687515775 7.294901687515775 0 0 0 63.196601125010524 -26.739234457824512"/>
<path fill="none" stroke="#44f" d="M 61.8033988749895 -22.451398828979265 A 7.294901687515775 7.294901687515775 0 0 0 48.606797749978966 -26.739234457824512"/>
<path fill="#65f" fill-opacity="0.6" d="m57.294901687515775,-13.875727571288774 l11.803398874989483,-8.575671257690491 l-14.589803375031543,0.0 l-11.803398874989483,8.575671257690491z"/>
<path fill="none" stroke="#f44" d="M 63.19660112501052 -18.16356320013402 A 7.294901687515771 7.294901687515771 0 0 0 50.0 -13.875727571288774"/>
<path fill="none" stroke="#44f" d="M 48.60679774997897 -18.16356320013402 A 7.294901687515772 7.294901687515772 0 0 0 61.80339887498948 -22.451398828979265"/>
<path fill="#853" fill-opacity="0.6" d="m57.294901687515775,13.875727571288774 l11.803398874989483,8.575671257690491 l-14.589803375031543,0.0 l-11.803398874989483,-8.575671257690491z"/>
<path fill="none" stroke="#f44" d="M 50.0 13.875727571288774 A 7.294901687515771 7.294901687515771 0 0 0 63.19660112501052 18.16356320013402"/>
<path fill="none" stroke="#44f" d="M 61.80339887498948 22.451398828979265 A 7.294901687515772 7.294901687515772 0 0 0 48.60679774997897 18.16356320013402"/>
<path fill="#3c7" fill-opacity="0.6" d="m57.294901687515775,31.02707008666976 l-14.58980337503155,0.0 l11.80339887498949,-8.575671257690495 l14.58980337503155,-0.0z"/>
<path fill="none" stroke="#f44" d="M 63.196601125010524 26.739234457824512 A 7.294901687515775 7.294901687515775 0 0 0 50.0 31.02707008666976"/>
<path fill="none" stroke="#44f" d="M 48.606797749978966 26.739234457824512 A 7.294901687515775 7.294901687515775 0 0 0 61.8033988749895 22.451398828979265"/>
<path fill="#108" fill-opacity="0.6" d="m69.09830056250526,-67.35419648693781 l-11.80339887498949,8.575671257690495 l4.508497187473722,-13.87572757128877 l11.80339887498949,-8.575671257690495z"/>
<path fill="none" stroke="#f44" d="M 71.35254915624212 -74.29206027258219 A 7.294901687515775 7.294901687515775 0 0 0 63.19660112501052 -63.066360858092565"/>
<path fill="none" stroke="#44f" d="M 59.54915028125263 -65.7163890148917 A 7.294901687515772 7.294901687515772 0 0 0 67.70509831248424 -76.94208842938133"/>
<path fill="#503" fill-opacity="0.6" d="m69.09830056250526,-50.20285397155682 l4.508497187473708,13.875727571288778 l-11.803398874989476,-8.575671257690502 l-4.508497187473708,-13.875727571288778z"/>
<path fill="none" stroke="#f44" d="M 63.19660112501052 -54.49068960040207 A 7.2949016875157735 7.2949016875157735 0 0 0 71.3525491562421 -43.26499018591243"/>
<path fill="none" stroke="#44f" d="M 67.70509831248422 -40.61496202911329 A 7.294901687515772 7.294901687515772 0 0 0 59.549150281252636 -51.84066144360293"/>
<path fill="#c74" fill-opacity="0.6" d="m69.09830056250526,-22.451398828979265 l-11.803398874989483,-8.575671257690495 l4.508497187473715,-13.875727571288785 l11.803398874989483,8.575671257690495z"/>
<path fill="none" stroke="#f44" d="M 71.3525491562421 -29.389262614623657 A 7.294901687515773 7.294901687515773 0 0 0 63.19660112501052 -26.739234457824512"/>
<path fill="none" stroke="#44f" d="M 59.549150281252636 -37.96493387231415 A 7.294901687515777 7.294901687515777 0 0 0 67.70509831248422 -40.6149620291133"/>
<path fill="#469" fill-opacity="0.6" d="m69.09830056250526,-22.451398828979265 l4.508497187473722,13.875727571288772 l-11.80339887498949,8.575671257690493 l-4.508497187473722,-13.875727571288772z"/>
<path fill="none" stroke="#f44" d="M 63.19660112501052 -18.163563200134018 A 7.294901687515773 7.294901687515773 0 0 0 71.35254915624212 -15.51353504333488"/>
<path fill="none" stroke="#44f" d="M 67.70509831248424 -4.287835628845246 A 7.294901687515775 7.294901687515775 0 0 0 59.54915028125263 -6.937863785644386"/>
<path fill="#aad" fill-opacity="0.6" d="m69.09830056250526,22.451398828979265 l4.508497187473722,-13.875727571288772 l-11.80339887498949,-8.575671257690493 l-4.508497187473722,13.875727571288772z"/>
<path fill="none" stroke="#f44" d="M 71.35254915624212 15.51353504333488 A 7.294901687515773 7.294901687515773 0 0 0 63.19660112501052 18.163563200134018"/>
<path fill="none" stroke="#44f" d="M 59.54915028125263 6.937863785644386 A 7.294901687515775 7.294901687515775 0 0 0 67.70509831248424 4.287835628845246"/>
<path fill="#643" fill-opacity="0.6" d="m69.09830056250526,22.451398828979265 l-11.803398874989483,8.575671257690495 l4.508497187473715,13.875727571288785 l11.803398874989483,-8.575671257690495z"/>
<path fill="none" stroke="#f44" d="M 63.19660112501052 26.739234457824512 A 7.294901687515773 7.294901687515773 0 0 0 71.3525491562421 29.389262614623657"/>
<path fill="none" stroke="#44f" d="M 67.70509831248422 40.6149620291133 A 7.294901687515777 7.294901687515777 0 0 0 59.549150281252636 37.96493387231415"/>
<path fill="#cde" fill-opacity="0.6" d="m69.09830056250526,50.20285397155682 l4.508497187473708,-13.875727571288778 l-11.803398874989476,8.575671257690502 l-4.508497187473708,13.875727571288778z"/>
<path fill="none" stroke="#f44" d="M 71.3525491562421 43.26499018591243 A 7.2949016875157735 7.2949016875157735 0 0 0 63.19660112501052 54.49068960040207"/>
<path fill="none" stroke="#44f" d="M 59.549150281252636 51.84066144360293 A 7.294901687515772 7.294901687515772 0 0 0 67.70509831248422 40.61496202911329"/>
<path fill="#4c4" fill-opacity="0.6" d="m69.09830056250526,67.35419648693781 l-11.80339887498949,-8.575671257690495 l4.508497187473722,13.87572757128877 l11.80339887498949,8.575671257690495z"/>
<path fill="none" stroke="#f44" d="M 63.19660112501052 63.066360858092565 A 7.294901687515775 7.294901687515775 0 0 0 71.35254915624212 74.29206027258219"/>
<path fill="none" stroke="#44f" d="M 67.70509831248424 76.94208842938133 A 7.294901687515772 7.294901687515772 0 0 0 59.54915028125263 65.7163890148917"/>
<path fill="#3a1" fill-opacity="0.6" d="m57.29490168751577,-58.778525229247315 l11.80339887498949,-8.575671257690495 l11.803398874989483,8.575671257690495 l-11.80339887498949,8.575671257690495z"/>
<path fill="none" stroke="#f44" d="M 63.1966011250105 -54.490689600402064 A 7.294901687515775 7.294901687515775 0 0 0 63.19660112501052 -63.066360858092565"/>
<path fill="none" stroke="#44f" d="M 75.0 -63.066360858092565 A 7.294901687515773 7.294901687515773 0 0 0 75.0 -54.490689600402064"/>
<path fill="#be5" fill-opacity="0.6" d="m57.29490168751577,58.778525229247315 l11.80339887498949,8.575671257690495 l11.803398874989483,-8.575671257690495 l-11.80339887498949,-8.575671257690495z"/>
<path fill="none" stroke="#f44" d="M 63.19660112501052 63.066360858092565 A 7.294901687515775 7.294901687515775 0 0 0 63.1966011250105 54.490689600402064"/>
<path fill="none" stroke="#44f" d="M 75.0 54.490689600402064 A 7.294901687515773 7.294901687515773 0 0 0 75.0 63.066360858092565"/>
<path fill="#f4f" fill-opacity="0.6" d="m85.41019662496846,0.0 l-11.803398874989483,8.575671257690493 l-11.80339887498949,-8.575671257690493 l11.803398874989483,-8.575671257690493z"/>
<path fill="none" stroke="#f44" d="M 79.50849718747372 -4.287835628845246 A 7.294901687515773 7.294901687515773 0 0 0 79.50849718747372 4.287835628845246"/>
<path fill="none" stroke="#44f" d="M 67.70509831248424 4.287835628845246 A 7.294901687515775 7.294901687515775 0 0 0 67.70509831248422 -4.287835628845246"/>
<path fill="#764" fill-opacity="0.6" d="m73.60679774997897,-36.32712640026804 l11.803398874989483,-8.575671257690502 l-4.508497187473708,-13.87572757128877 l-11.803398874989483,8.575671257690502z"/>
<path fill="none" stroke="#f44" d="M 79.50849718747371 -40.61496202911329 A 7.294901687515775 7.294901687515775 0 0 0 71.3525491562421 -43.264990185912424"/>
<path fill="none" stroke="#44f" d="M 75.0 -54.490689600402064 A 7.29490168751577 7.29490168751577 0 0 0 83.15594803123159 -51.840661443602926"/>
<path fill="#382" fill-opacity="0.6" d="m73.60679774997898,-8.575671257690493 l-4.508497187473722,-13.875727571288772 l11.803398874989483,8.575671257690491 l4.508497187473722,13.875727571288772z"/>
<path fill="none" stroke="#f44" d="M 79.50849718747372 -4.287835628845247 A 7.294901687515773 7.294901687515773 0 0 0 71.35254915624212 -15.51353504333488"/>
<path fill="none" stroke="#44f" d="M 75.0 -18.16356320013402 A 7.294901687515771 7.294901687515771 0 0 0 83.1559480312316 -6.937863785644388"/>
<path fill="#9f3" fill-opacity="0.6" d="m73.60679774997898,8.575671257690493 l-4.508497187473722,13.875727571288772 l11.803398874989483,-8.575671257690491 l4.508497187473722,-13.875727571288772z"/>
<path fill="none" stroke="#f44" d="M 71.35254915624212 15.51353504333488 A 7.294901687515773 7.294901687515773 0 0 0 79.50849718747372 4.287835628845247"/>
<path fill="none" stroke="#44f" d="M 83.1559480312316 6.937863785644388 A 7.294901687515771 7.294901687515771 0 0 0 75.0 18.16356320013402"/>
<path fill="#7f8" fill-opacity="0.6" d="m73.60679774997897,36.32712640026804 l11.803398874989483,8.575671257690502 l-4.508497187473708,13.87572757128877 l-11.803398874989483,-8.575671257690502z"/>
<path fill="none" stroke="#f44" d="M 71.3525491562421 43.264990185912424 A 7.294901687515775 7.294901687515775 0 0 0 79.50849718747371 40.61496202911329"/>
<path fill="none" stroke="#44f" d="M 83.15594803123159 51.840661443602926 A 7.29490168751577 7.29490168751577 0 0 0 75.0 54.490689600402064"/>
<path fill="#9e5" fill-opacity="0.6" d="m69.09830056250526,-22.451398828979265 l14.58980337503155,-3.552713678800501e-15 l4.508497187473708,-13.875727571288781 l-14.58980337503155,3.552713678800501e-15z"/>
<path fill="none" stroke="#f44" d="M 76.39320225002103 -22.451398828979265 A 7.294901687515775 7.294901687515775 0 0 0 71.3525491562421 -29.389262614623654"/>
<path fill="none" stroke="#44f" d="M 80.90169943749474 -36.32712640026804 A 7.294901687515775 7.294901687515775 0 0 0 85.94235253127366 -29.38926261462366"/>
<path fill="#cd" fill-opacity="0.6" d="m69.09830056250526,22.451398828979265 l14.58980337503155,3.552713678800501e-15 l4.508497187473708,13.875727571288781 l-14.58980337503155,-3.552713678800501e-15z"/>
<path fill="none" stroke="#f44" d="M 71.3525491562421 29.389262614623654 A 7.294901687515775 7.294901687515775 0 0 0 76.39320225002103 22.451398828979265"/>
<path fill="none" stroke="#44f" d="M 85.94235253127366 29.38926261462366 A 7.294901687515775 7.294901687515775 0 0 0 80.90169943749474 36.32712640026804"/>
<path fill="#296" fill-opacity="0.6" d="m83.68810393753681,-22.45139882897927 l11.803398874989483,8.575671257690493 l-14.58980337503155,1.7763568394002505e-15 l-11.803398874989483,-8.575671257690493z"/>
<path fill="none" stroke="#f44" d="M 76.39320225002103 -22.451398828979265 A 7.294901687515773 7.294901687515773 0 0 0 89.58980337503155 -18.16356320013402"/>
<path fill="none" stroke="#44f" d="M 88.19660112501052 -13.875727571288774 A 7.294901687515775 7.294901687515775 0 0 0 75.0 -18.16356320013402"/>
<path fill="#239" fill-opacity="0.6" d="m83.68810393753681,22.45139882897927 l11.803398874989483,-8.575671257690493 l-14.58980337503155,-1.7763568394002505e-15 l-11.803398874989483,8.575671257690493z"/>
<path fill="none" stroke="#f44" d="M 89.58980337503155 18.16356320013402 A 7.294901687515773 7.294901687515773 0 0 0 76.39320225002103 22.451398828979265"/>
<path fill="none" stroke="#44f" d="M 75.0 18.16356320013402 A 7.294901687515775 7.294901687515775 0 0 0 88.19660112501052 13.875727571288774"/>
<path fill="#dcb" fill-opacity="0.6" d="m85.41019662496845,-44.902797657958544 l-11.803398874989483,8.575671257690502 l14.58980337503155,-7.105427357601002e-15 l11.803398874989483,-8.575671257690502z"/>
<path fill="none" stroke="#f44" d="M 79.50849718747371 -40.61496202911329 A 7.294901687515775 7.294901687515775 0 0 0 92.70509831248422 -44.902797657958544"/>
<path fill="none" stroke="#44f" d="M 94.09830056250526 -40.6149620291133 A 7.294901687515775 7.294901687515775 0 0 0 80.90169943749474 -36.32712640026804"/>
<path fill="#ef2" fill-opacity="0.6" d="m85.41019662496845,44.902797657958544 l-11.803398874989483,-8.575671257690502 l14.58980337503155,7.105427357601002e-15 l11.803398874989483,8.575671257690502z"/>
<path fill="none" stroke="#f44" d="M 92.70509831248422 44.902797657958544 A 7.294901687515775 7.294901687515775 0 0 0 79.50849718747371 40.61496202911329"/>
<path fill="none" stroke="#44f" d="M 80.90169943749474 36.32712640026804 A 7.294901687515775 7.294901687515775 0 0 0 94.09830056250526 40.6149620291133"/>
<path fill="#d57" fill-opacity="0.6" d="m100.0,-0.0 l-14.589803375031536,0.0 l-4.508497187473722,-13.875727571288774 l14.589803375031536,-0.0z"/>
<path fill="none" stroke="#f44" d="M 97.74575140626314 -6.937863785644387 A 7.294901687515768 7.294901687515768 0 0 0 92.70509831248424 -0.0"/>
<path fill="none" stroke="#44f" d="M 83.1559480312316 -6.937863785644387 A 7.2949016875157735 7.2949016875157735 0 0 0 88.19660112501052 -13.875727571288774"/>
<path fill="#b5c" fill-opacity="0.6" d="m100.0,0.0 l-14.589803375031536,0.0 l-4.508497187473722,13.875727571288774 l14.589803375031536,-0.0z"/>
<path fill="none" stroke="#f44" d="M 92.70509831248424 0.0 A 7.294901687515768 7.294901687515768 0 0 0 97.74575140626314 6.937863785644387"/>
<path fill="none" stroke="#44f" d="M 88.19660112501052 13.875727571288774 A 7.2949016875157735 7.2949016875157735 0 0 0 83.1559480312316 6.937863785644387"/>
<path fill="#a99" fill-opacity="0.6" d="m95.49150281252629,-13.875727571288776 l-11.803398874989483,-8.575671257690493 l4.508497187473708,-13.875727571288781 l11.803398874989483,8.575671257690493z"/>
<path fill="none" stroke="#f44" d="M 97.74575140626314 -20.813591356933166 A 7.294901687515773 7.294901687515773 0 0 0 89.58980337503155 -18.16356320013402"/>
<path fill="none" stroke="#44f" d="M 85.94235253127366 -29.38926261462366 A 7.294901687515775 7.294901687515775 0 0 0 94.09830056250526 -32.0392907714228"/>
<path fill="#39b" fill-opacity="0.6" d="m95.49150281252629,13.875727571288776 l-11.803398874989483,8.575671257690493 l4.508497187473708,13.875727571288781 l11.803398874989483,-8.575671257690493z"/>
<path fill="none" stroke="#f44" d="M 89.58980337503155 18.16356320013402 A 7.294901687515773 7.294901687515773 0 0 0 97.74575140626314 20.813591356933166"/>
<path fill="none" stroke="#44f" d="M 94.09830056250526 32.0392907714228 A 7.294901687515775 7.294901687515775 0 0 0 85.94235253127366 29.38926261462366"/>
</g>
</svg>